<mxfile host="65bd71144e">
    <diagram id="GtaeEBT7dLcvkx7V--59" name="Domain Object Class diagram">
        <mxGraphModel dx="2134" dy="1747" grid="1" gridSize="10" guides="1" tooltips="1" connect="1" arrows="1" fold="1" page="1" pageScale="1" pageWidth="850" pageHeight="1100" math="0" shadow="0">
            <root>
                <mxCell id="0"/>
                <mxCell id="1" parent="0"/>
                <mxCell id="36" style="edgeStyle=orthogonalEdgeStyle;html=1;startArrow=diamond;startFill=0;endArrow=ERone;endFill=0;" parent="1" source="cLbF2slpCYDmgKNz8u4w-1" target="32" edge="1">
                    <mxGeometry relative="1" as="geometry"/>
                </mxCell>
                <mxCell id="cLbF2slpCYDmgKNz8u4w-1" value="&amp;lt;&amp;lt;Aggregate&amp;gt;&amp;gt;&lt;div&gt;User Account&lt;/div&gt;" style="swimlane;fontStyle=1;align=center;verticalAlign=top;childLayout=stackLayout;horizontal=1;startSize=40;horizontalStack=0;resizeParent=1;resizeParentMax=0;resizeLast=0;collapsible=1;marginBottom=0;whiteSpace=wrap;html=1;" parent="1" vertex="1">
                    <mxGeometry x="180" y="160" width="210" height="160" as="geometry"/>
                </mxCell>
                <mxCell id="cLbF2slpCYDmgKNz8u4w-2" value="- userAccountID: value object&lt;br&gt;&lt;div&gt;&lt;div&gt;- username:string&lt;br&gt;&lt;div&gt;&lt;div&gt;- password:string&lt;/div&gt;&lt;div&gt;- accessRule:value object&lt;/div&gt;&lt;/div&gt;&lt;/div&gt;&lt;/div&gt;&lt;div&gt;- restrictionId:value object | null&lt;/div&gt;" style="text;strokeColor=none;fillColor=none;align=left;verticalAlign=top;spacingLeft=4;spacingRight=4;overflow=hidden;rotatable=0;points=[[0,0.5],[1,0.5]];portConstraint=eastwest;whiteSpace=wrap;html=1;" parent="cLbF2slpCYDmgKNz8u4w-1" vertex="1">
                    <mxGeometry y="40" width="210" height="80" as="geometry"/>
                </mxCell>
                <mxCell id="cLbF2slpCYDmgKNz8u4w-3" value="" style="line;strokeWidth=1;fillColor=none;align=left;verticalAlign=middle;spacingTop=-1;spacingLeft=3;spacingRight=3;rotatable=0;labelPosition=right;points=[];portConstraint=eastwest;strokeColor=inherit;" parent="cLbF2slpCYDmgKNz8u4w-1" vertex="1">
                    <mxGeometry y="120" width="210" height="8" as="geometry"/>
                </mxCell>
                <mxCell id="cLbF2slpCYDmgKNz8u4w-4" value="+ method(type): type" style="text;strokeColor=none;fillColor=none;align=left;verticalAlign=top;spacingLeft=4;spacingRight=4;overflow=hidden;rotatable=0;points=[[0,0.5],[1,0.5]];portConstraint=eastwest;whiteSpace=wrap;html=1;" parent="cLbF2slpCYDmgKNz8u4w-1" vertex="1">
                    <mxGeometry y="128" width="210" height="32" as="geometry"/>
                </mxCell>
                <mxCell id="LZRiOb_BstFV7OTACxnQ-9" style="edgeStyle=orthogonalEdgeStyle;rounded=0;orthogonalLoop=1;jettySize=auto;html=1;entryX=0.996;entryY=0.388;entryDx=0;entryDy=0;startArrow=diamond;startFill=1;endArrow=ERone;endFill=0;exitX=0.126;exitY=1.115;exitDx=0;exitDy=0;exitPerimeter=0;entryPerimeter=0;" parent="1" source="cLbF2slpCYDmgKNz8u4w-8" target="LZRiOb_BstFV7OTACxnQ-6" edge="1">
                    <mxGeometry relative="1" as="geometry">
                        <mxPoint x="260" y="742" as="sourcePoint"/>
                        <Array as="points">
                            <mxPoint x="154" y="690"/>
                            <mxPoint x="114" y="690"/>
                            <mxPoint x="114" y="776"/>
                        </Array>
                    </mxGeometry>
                </mxCell>
                <mxCell id="IiC-hAanUXLyAjGfhQ_G-6" style="edgeStyle=orthogonalEdgeStyle;rounded=0;orthogonalLoop=1;jettySize=auto;html=1;entryX=1;entryY=0.5;entryDx=0;entryDy=0;startArrow=diamond;startFill=1;endArrow=ERone;endFill=0;exitX=-0.011;exitY=0.15;exitDx=0;exitDy=0;exitPerimeter=0;" parent="1" source="cLbF2slpCYDmgKNz8u4w-6" target="IiC-hAanUXLyAjGfhQ_G-3" edge="1">
                    <mxGeometry relative="1" as="geometry"/>
                </mxCell>
                <mxCell id="25" style="edgeStyle=orthogonalEdgeStyle;html=1;entryX=0.239;entryY=1.115;entryDx=0;entryDy=0;entryPerimeter=0;startArrow=diamond;startFill=0;endArrow=ERone;endFill=0;elbow=vertical;" parent="1" source="cLbF2slpCYDmgKNz8u4w-5" target="cLbF2slpCYDmgKNz8u4w-29" edge="1">
                    <mxGeometry relative="1" as="geometry">
                        <Array as="points">
                            <mxPoint x="490" y="550"/>
                            <mxPoint x="490" y="330"/>
                            <mxPoint x="783" y="330"/>
                        </Array>
                    </mxGeometry>
                </mxCell>
                <mxCell id="cLbF2slpCYDmgKNz8u4w-5" value="&amp;lt;&amp;lt;Aggregate&amp;gt;&amp;gt;&lt;div&gt;WorkProfile&lt;/div&gt;" style="swimlane;fontStyle=1;align=center;verticalAlign=top;childLayout=stackLayout;horizontal=1;startSize=40;horizontalStack=0;resizeParent=1;resizeParentMax=0;resizeLast=0;collapsible=1;marginBottom=0;whiteSpace=wrap;html=1;" parent="1" vertex="1">
                    <mxGeometry x="130" y="484" width="190" height="184" as="geometry"/>
                </mxCell>
                <mxCell id="cLbF2slpCYDmgKNz8u4w-6" value="&lt;div&gt;- workProfileId:value object&lt;/div&gt;&lt;div&gt;- workAccountId:value object&lt;/div&gt;&lt;div&gt;- fullName:value object&lt;/div&gt;&lt;div&gt;- gender:Value object&lt;/div&gt;&lt;div&gt;- workEmailAddress:value object&lt;/div&gt;&lt;div&gt;&lt;div&gt;&lt;span style=&quot;background-color: initial;&quot;&gt;- WorkPhoneNumber:value object&lt;/span&gt;&lt;/div&gt;&lt;div&gt;&lt;span style=&quot;background-color: initial;&quot;&gt;- address:value object&lt;/span&gt;&lt;/div&gt;&lt;/div&gt;&lt;div&gt;&lt;br&gt;&lt;/div&gt;" style="text;strokeColor=none;fillColor=none;align=left;verticalAlign=top;spacingLeft=4;spacingRight=4;overflow=hidden;rotatable=0;points=[[0,0.5],[1,0.5]];portConstraint=eastwest;whiteSpace=wrap;html=1;" parent="cLbF2slpCYDmgKNz8u4w-5" vertex="1">
                    <mxGeometry y="40" width="190" height="110" as="geometry"/>
                </mxCell>
                <mxCell id="cLbF2slpCYDmgKNz8u4w-7" value="" style="line;strokeWidth=1;fillColor=none;align=left;verticalAlign=middle;spacingTop=-1;spacingLeft=3;spacingRight=3;rotatable=0;labelPosition=right;points=[];portConstraint=eastwest;strokeColor=inherit;" parent="cLbF2slpCYDmgKNz8u4w-5" vertex="1">
                    <mxGeometry y="150" width="190" height="8" as="geometry"/>
                </mxCell>
                <mxCell id="cLbF2slpCYDmgKNz8u4w-8" value="+ method(type): type" style="text;strokeColor=none;fillColor=none;align=left;verticalAlign=top;spacingLeft=4;spacingRight=4;overflow=hidden;rotatable=0;points=[[0,0.5],[1,0.5]];portConstraint=eastwest;whiteSpace=wrap;html=1;" parent="cLbF2slpCYDmgKNz8u4w-5" vertex="1">
                    <mxGeometry y="158" width="190" height="26" as="geometry"/>
                </mxCell>
                <mxCell id="IiC-hAanUXLyAjGfhQ_G-13" style="edgeStyle=orthogonalEdgeStyle;rounded=0;orthogonalLoop=1;jettySize=auto;html=1;entryX=0.5;entryY=0;entryDx=0;entryDy=0;startArrow=diamond;startFill=1;endArrow=ERone;endFill=0;exitX=0.7;exitY=1.038;exitDx=0;exitDy=0;exitPerimeter=0;" parent="1" source="cLbF2slpCYDmgKNz8u4w-8" target="IiC-hAanUXLyAjGfhQ_G-18" edge="1">
                    <mxGeometry relative="1" as="geometry">
                        <mxPoint x="435" y="860" as="targetPoint"/>
                        <mxPoint x="400" y="800" as="sourcePoint"/>
                    </mxGeometry>
                </mxCell>
                <mxCell id="cLbF2slpCYDmgKNz8u4w-15" style="edgeStyle=orthogonalEdgeStyle;rounded=0;orthogonalLoop=1;jettySize=auto;html=1;startArrow=diamondThin;startFill=0;endArrow=ERone;endFill=0;" parent="1" source="cLbF2slpCYDmgKNz8u4w-16" target="cLbF2slpCYDmgKNz8u4w-21" edge="1">
                    <mxGeometry relative="1" as="geometry"/>
                </mxCell>
                <mxCell id="rlwxEXt-skPTTyKTojZR-15" style="edgeStyle=orthogonalEdgeStyle;rounded=0;orthogonalLoop=1;jettySize=auto;html=1;entryX=0;entryY=0.5;entryDx=0;entryDy=0;startArrow=diamond;startFill=0;endArrow=ERmany;endFill=0;" parent="1" source="cLbF2slpCYDmgKNz8u4w-16" target="rlwxEXt-skPTTyKTojZR-8" edge="1">
                    <mxGeometry relative="1" as="geometry">
                        <Array as="points">
                            <mxPoint x="860" y="470"/>
                            <mxPoint x="860" y="511"/>
                        </Array>
                    </mxGeometry>
                </mxCell>
                <mxCell id="37" style="edgeStyle=orthogonalEdgeStyle;html=1;entryX=1.007;entryY=0.755;entryDx=0;entryDy=0;entryPerimeter=0;startArrow=diamond;startFill=0;endArrow=ERone;endFill=0;" parent="1" source="cLbF2slpCYDmgKNz8u4w-16" target="32" edge="1">
                    <mxGeometry relative="1" as="geometry"/>
                </mxCell>
                <mxCell id="cLbF2slpCYDmgKNz8u4w-16" value="&amp;lt;&amp;lt;Aggregate&amp;gt;&amp;gt;&lt;div&gt;Work Account&lt;/div&gt;" style="swimlane;fontStyle=1;align=center;verticalAlign=top;childLayout=stackLayout;horizontal=1;startSize=40;horizontalStack=0;resizeParent=1;resizeParentMax=0;resizeLast=0;collapsible=1;marginBottom=0;whiteSpace=wrap;html=1;" parent="1" vertex="1">
                    <mxGeometry x="590" y="378" width="230" height="214" as="geometry"/>
                </mxCell>
                <mxCell id="cLbF2slpCYDmgKNz8u4w-17" value="- User Account ID:value object&lt;div&gt;- Work Account ID:value object&lt;/div&gt;&lt;div&gt;- LicensesId:array&lt;/div&gt;&lt;div&gt;- Organization ID:value object&lt;/div&gt;&lt;div&gt;- RolesId:array&lt;/div&gt;&lt;div&gt;- AccessRuleId:value object&lt;/div&gt;&lt;div&gt;- restrictionId:value object | null&lt;/div&gt;&lt;div&gt;- Work Account Group ID: value object&lt;/div&gt;&lt;div&gt;- shouldAutoAssignLicense:boolean&lt;/div&gt;" style="text;strokeColor=none;fillColor=none;align=left;verticalAlign=top;spacingLeft=4;spacingRight=4;overflow=hidden;rotatable=0;points=[[0,0.5],[1,0.5]];portConstraint=eastwest;whiteSpace=wrap;html=1;" parent="cLbF2slpCYDmgKNz8u4w-16" vertex="1">
                    <mxGeometry y="40" width="230" height="140" as="geometry"/>
                </mxCell>
                <mxCell id="cLbF2slpCYDmgKNz8u4w-18" value="" style="line;strokeWidth=1;fillColor=none;align=left;verticalAlign=middle;spacingTop=-1;spacingLeft=3;spacingRight=3;rotatable=0;labelPosition=right;points=[];portConstraint=eastwest;strokeColor=inherit;" parent="cLbF2slpCYDmgKNz8u4w-16" vertex="1">
                    <mxGeometry y="180" width="230" height="8" as="geometry"/>
                </mxCell>
                <mxCell id="cLbF2slpCYDmgKNz8u4w-19" value="+ method(type): type" style="text;strokeColor=none;fillColor=none;align=left;verticalAlign=top;spacingLeft=4;spacingRight=4;overflow=hidden;rotatable=0;points=[[0,0.5],[1,0.5]];portConstraint=eastwest;whiteSpace=wrap;html=1;" parent="cLbF2slpCYDmgKNz8u4w-16" vertex="1">
                    <mxGeometry y="188" width="230" height="26" as="geometry"/>
                </mxCell>
                <mxCell id="cLbF2slpCYDmgKNz8u4w-20" value="&amp;lt;&amp;lt;Value object&amp;gt;&amp;gt;&lt;div&gt;UserAccountId&lt;/div&gt;" style="swimlane;fontStyle=1;align=center;verticalAlign=top;childLayout=stackLayout;horizontal=1;startSize=40;horizontalStack=0;resizeParent=1;resizeParentMax=0;resizeLast=0;collapsible=1;marginBottom=0;whiteSpace=wrap;html=1;" parent="1" vertex="1">
                    <mxGeometry x="520" y="170" width="180" height="104" as="geometry"/>
                </mxCell>
                <mxCell id="cLbF2slpCYDmgKNz8u4w-21" value="- id:string&lt;div&gt;&lt;br&gt;&lt;/div&gt;" style="text;strokeColor=none;fillColor=none;align=left;verticalAlign=top;spacingLeft=4;spacingRight=4;overflow=hidden;rotatable=0;points=[[0,0.5],[1,0.5]];portConstraint=eastwest;whiteSpace=wrap;html=1;" parent="cLbF2slpCYDmgKNz8u4w-20" vertex="1">
                    <mxGeometry y="40" width="180" height="30" as="geometry"/>
                </mxCell>
                <mxCell id="cLbF2slpCYDmgKNz8u4w-22" value="" style="line;strokeWidth=1;fillColor=none;align=left;verticalAlign=middle;spacingTop=-1;spacingLeft=3;spacingRight=3;rotatable=0;labelPosition=right;points=[];portConstraint=eastwest;strokeColor=inherit;" parent="cLbF2slpCYDmgKNz8u4w-20" vertex="1">
                    <mxGeometry y="70" width="180" height="8" as="geometry"/>
                </mxCell>
                <mxCell id="cLbF2slpCYDmgKNz8u4w-23" value="+ method(type): type" style="text;strokeColor=none;fillColor=none;align=left;verticalAlign=top;spacingLeft=4;spacingRight=4;overflow=hidden;rotatable=0;points=[[0,0.5],[1,0.5]];portConstraint=eastwest;whiteSpace=wrap;html=1;" parent="cLbF2slpCYDmgKNz8u4w-20" vertex="1">
                    <mxGeometry y="78" width="180" height="26" as="geometry"/>
                </mxCell>
                <mxCell id="cLbF2slpCYDmgKNz8u4w-24" style="edgeStyle=orthogonalEdgeStyle;rounded=0;orthogonalLoop=1;jettySize=auto;html=1;entryX=0;entryY=0.5;entryDx=0;entryDy=0;startArrow=diamondThin;startFill=1;endArrow=ERone;endFill=0;" parent="1" source="cLbF2slpCYDmgKNz8u4w-2" target="cLbF2slpCYDmgKNz8u4w-21" edge="1">
                    <mxGeometry relative="1" as="geometry">
                        <Array as="points">
                            <mxPoint x="455" y="230"/>
                            <mxPoint x="455" y="225"/>
                        </Array>
                    </mxGeometry>
                </mxCell>
                <mxCell id="cLbF2slpCYDmgKNz8u4w-26" value="&amp;lt;&amp;lt;Value object&amp;gt;&amp;gt;&lt;div&gt;WorkAccountId&lt;/div&gt;" style="swimlane;fontStyle=1;align=center;verticalAlign=top;childLayout=stackLayout;horizontal=1;startSize=40;horizontalStack=0;resizeParent=1;resizeParentMax=0;resizeLast=0;collapsible=1;marginBottom=0;whiteSpace=wrap;html=1;" parent="1" vertex="1">
                    <mxGeometry x="740" y="130" width="180" height="104" as="geometry"/>
                </mxCell>
                <mxCell id="cLbF2slpCYDmgKNz8u4w-27" value="- id:string&lt;div&gt;&lt;br&gt;&lt;/div&gt;" style="text;strokeColor=none;fillColor=none;align=left;verticalAlign=top;spacingLeft=4;spacingRight=4;overflow=hidden;rotatable=0;points=[[0,0.5],[1,0.5]];portConstraint=eastwest;whiteSpace=wrap;html=1;" parent="cLbF2slpCYDmgKNz8u4w-26" vertex="1">
                    <mxGeometry y="40" width="180" height="30" as="geometry"/>
                </mxCell>
                <mxCell id="cLbF2slpCYDmgKNz8u4w-28" value="" style="line;strokeWidth=1;fillColor=none;align=left;verticalAlign=middle;spacingTop=-1;spacingLeft=3;spacingRight=3;rotatable=0;labelPosition=right;points=[];portConstraint=eastwest;strokeColor=inherit;" parent="cLbF2slpCYDmgKNz8u4w-26" vertex="1">
                    <mxGeometry y="70" width="180" height="8" as="geometry"/>
                </mxCell>
                <mxCell id="cLbF2slpCYDmgKNz8u4w-29" value="+ method(type): type" style="text;strokeColor=none;fillColor=none;align=left;verticalAlign=top;spacingLeft=4;spacingRight=4;overflow=hidden;rotatable=0;points=[[0,0.5],[1,0.5]];portConstraint=eastwest;whiteSpace=wrap;html=1;" parent="cLbF2slpCYDmgKNz8u4w-26" vertex="1">
                    <mxGeometry y="78" width="180" height="26" as="geometry"/>
                </mxCell>
                <mxCell id="cLbF2slpCYDmgKNz8u4w-30" style="edgeStyle=orthogonalEdgeStyle;rounded=0;orthogonalLoop=1;jettySize=auto;html=1;entryX=0.543;entryY=1.133;entryDx=0;entryDy=0;entryPerimeter=0;startArrow=diamond;startFill=1;endArrow=ERone;endFill=0;exitX=1.017;exitY=0.167;exitDx=0;exitDy=0;exitPerimeter=0;" parent="1" source="cLbF2slpCYDmgKNz8u4w-17" target="cLbF2slpCYDmgKNz8u4w-29" edge="1">
                    <mxGeometry relative="1" as="geometry">
                        <Array as="points">
                            <mxPoint x="838" y="436"/>
                        </Array>
                    </mxGeometry>
                </mxCell>
                <mxCell id="cLbF2slpCYDmgKNz8u4w-31" style="edgeStyle=orthogonalEdgeStyle;rounded=0;orthogonalLoop=1;jettySize=auto;html=1;entryX=0.5;entryY=0;entryDx=0;entryDy=0;startArrow=diamond;startFill=1;endArrow=ERone;endFill=0;" parent="1" source="cLbF2slpCYDmgKNz8u4w-32" target="cLbF2slpCYDmgKNz8u4w-36" edge="1">
                    <mxGeometry relative="1" as="geometry">
                        <Array as="points">
                            <mxPoint x="940" y="184"/>
                            <mxPoint x="1040" y="184"/>
                        </Array>
                    </mxGeometry>
                </mxCell>
                <mxCell id="cLbF2slpCYDmgKNz8u4w-32" value="&amp;lt;&amp;lt;Aggregate&amp;gt;&amp;gt;&lt;div&gt;Oragization&lt;/div&gt;" style="swimlane;fontStyle=1;align=center;verticalAlign=top;childLayout=stackLayout;horizontal=1;startSize=40;horizontalStack=0;resizeParent=1;resizeParentMax=0;resizeLast=0;collapsible=1;marginBottom=0;whiteSpace=wrap;html=1;" parent="1" vertex="1">
                    <mxGeometry x="770" y="-40" width="220" height="134" as="geometry"/>
                </mxCell>
                <mxCell id="cLbF2slpCYDmgKNz8u4w-33" value="- Organization ID:value object&lt;div&gt;- name:value object&lt;/div&gt;&lt;div&gt;- Subscription:value object&lt;/div&gt;" style="text;strokeColor=none;fillColor=none;align=left;verticalAlign=top;spacingLeft=4;spacingRight=4;overflow=hidden;rotatable=0;points=[[0,0.5],[1,0.5]];portConstraint=eastwest;whiteSpace=wrap;html=1;" parent="cLbF2slpCYDmgKNz8u4w-32" vertex="1">
                    <mxGeometry y="40" width="220" height="60" as="geometry"/>
                </mxCell>
                <mxCell id="cLbF2slpCYDmgKNz8u4w-34" value="" style="line;strokeWidth=1;fillColor=none;align=left;verticalAlign=middle;spacingTop=-1;spacingLeft=3;spacingRight=3;rotatable=0;labelPosition=right;points=[];portConstraint=eastwest;strokeColor=inherit;" parent="cLbF2slpCYDmgKNz8u4w-32" vertex="1">
                    <mxGeometry y="100" width="220" height="8" as="geometry"/>
                </mxCell>
                <mxCell id="cLbF2slpCYDmgKNz8u4w-35" value="+ method(type): type" style="text;strokeColor=none;fillColor=none;align=left;verticalAlign=top;spacingLeft=4;spacingRight=4;overflow=hidden;rotatable=0;points=[[0,0.5],[1,0.5]];portConstraint=eastwest;whiteSpace=wrap;html=1;" parent="cLbF2slpCYDmgKNz8u4w-32" vertex="1">
                    <mxGeometry y="108" width="220" height="26" as="geometry"/>
                </mxCell>
                <mxCell id="cLbF2slpCYDmgKNz8u4w-36" value="&amp;lt;&amp;lt;Value object&amp;gt;&amp;gt;&lt;div&gt;Organization ID&lt;/div&gt;" style="swimlane;fontStyle=1;align=center;verticalAlign=top;childLayout=stackLayout;horizontal=1;startSize=40;horizontalStack=0;resizeParent=1;resizeParentMax=0;resizeLast=0;collapsible=1;marginBottom=0;whiteSpace=wrap;html=1;" parent="1" vertex="1">
                    <mxGeometry x="950" y="274" width="180" height="104" as="geometry"/>
                </mxCell>
                <mxCell id="cLbF2slpCYDmgKNz8u4w-37" value="- organization ID:string&lt;div&gt;&lt;br&gt;&lt;/div&gt;" style="text;strokeColor=none;fillColor=none;align=left;verticalAlign=top;spacingLeft=4;spacingRight=4;overflow=hidden;rotatable=0;points=[[0,0.5],[1,0.5]];portConstraint=eastwest;whiteSpace=wrap;html=1;" parent="cLbF2slpCYDmgKNz8u4w-36" vertex="1">
                    <mxGeometry y="40" width="180" height="30" as="geometry"/>
                </mxCell>
                <mxCell id="cLbF2slpCYDmgKNz8u4w-38" value="" style="line;strokeWidth=1;fillColor=none;align=left;verticalAlign=middle;spacingTop=-1;spacingLeft=3;spacingRight=3;rotatable=0;labelPosition=right;points=[];portConstraint=eastwest;strokeColor=inherit;" parent="cLbF2slpCYDmgKNz8u4w-36" vertex="1">
                    <mxGeometry y="70" width="180" height="8" as="geometry"/>
                </mxCell>
                <mxCell id="cLbF2slpCYDmgKNz8u4w-39" value="+ method(type): type" style="text;strokeColor=none;fillColor=none;align=left;verticalAlign=top;spacingLeft=4;spacingRight=4;overflow=hidden;rotatable=0;points=[[0,0.5],[1,0.5]];portConstraint=eastwest;whiteSpace=wrap;html=1;" parent="cLbF2slpCYDmgKNz8u4w-36" vertex="1">
                    <mxGeometry y="78" width="180" height="26" as="geometry"/>
                </mxCell>
                <mxCell id="cLbF2slpCYDmgKNz8u4w-40" style="edgeStyle=orthogonalEdgeStyle;rounded=0;orthogonalLoop=1;jettySize=auto;html=1;entryX=-0.02;entryY=-0.085;entryDx=0;entryDy=0;entryPerimeter=0;startArrow=diamond;startFill=0;endArrow=ERone;endFill=0;exitX=1.007;exitY=0.391;exitDx=0;exitDy=0;exitPerimeter=0;" parent="1" source="cLbF2slpCYDmgKNz8u4w-17" target="cLbF2slpCYDmgKNz8u4w-37" edge="1">
                    <mxGeometry relative="1" as="geometry">
                        <Array as="points">
                            <mxPoint x="860" y="461"/>
                            <mxPoint x="860" y="311"/>
                        </Array>
                    </mxGeometry>
                </mxCell>
                <mxCell id="cLbF2slpCYDmgKNz8u4w-41" style="edgeStyle=orthogonalEdgeStyle;rounded=0;orthogonalLoop=1;jettySize=auto;html=1;startArrow=diamond;startFill=0;endArrow=ERone;endFill=0;exitX=0.996;exitY=0.231;exitDx=0;exitDy=0;exitPerimeter=0;" parent="1" source="cLbF2slpCYDmgKNz8u4w-43" edge="1">
                    <mxGeometry relative="1" as="geometry">
                        <mxPoint x="950" y="350" as="targetPoint"/>
                        <mxPoint x="890" y="816" as="sourcePoint"/>
                        <Array as="points">
                            <mxPoint x="850" y="831"/>
                            <mxPoint x="850" y="351"/>
                            <mxPoint x="950" y="351"/>
                        </Array>
                    </mxGeometry>
                </mxCell>
                <mxCell id="cLbF2slpCYDmgKNz8u4w-42" value="&amp;lt;&amp;lt;Aggregate&amp;gt;&amp;gt;&lt;div&gt;Work Account Group&lt;/div&gt;" style="swimlane;fontStyle=1;align=center;verticalAlign=top;childLayout=stackLayout;horizontal=1;startSize=40;horizontalStack=0;resizeParent=1;resizeParentMax=0;resizeLast=0;collapsible=1;marginBottom=0;whiteSpace=wrap;html=1;" parent="1" vertex="1">
                    <mxGeometry x="500" y="760" width="220" height="164" as="geometry"/>
                </mxCell>
                <mxCell id="cLbF2slpCYDmgKNz8u4w-43" value="- Work Account Group ID:value object&lt;div&gt;- Organization ID:value object&lt;/div&gt;&lt;div&gt;- name:string&lt;/div&gt;&lt;div&gt;- Licenses:array&lt;/div&gt;&lt;div&gt;- Roles:array&lt;/div&gt;" style="text;strokeColor=none;fillColor=none;align=left;verticalAlign=top;spacingLeft=4;spacingRight=4;overflow=hidden;rotatable=0;points=[[0,0.5],[1,0.5]];portConstraint=eastwest;whiteSpace=wrap;html=1;" parent="cLbF2slpCYDmgKNz8u4w-42" vertex="1">
                    <mxGeometry y="40" width="220" height="90" as="geometry"/>
                </mxCell>
                <mxCell id="cLbF2slpCYDmgKNz8u4w-44" value="" style="line;strokeWidth=1;fillColor=none;align=left;verticalAlign=middle;spacingTop=-1;spacingLeft=3;spacingRight=3;rotatable=0;labelPosition=right;points=[];portConstraint=eastwest;strokeColor=inherit;" parent="cLbF2slpCYDmgKNz8u4w-42" vertex="1">
                    <mxGeometry y="130" width="220" height="8" as="geometry"/>
                </mxCell>
                <mxCell id="cLbF2slpCYDmgKNz8u4w-45" value="+ method(type): type" style="text;strokeColor=none;fillColor=none;align=left;verticalAlign=top;spacingLeft=4;spacingRight=4;overflow=hidden;rotatable=0;points=[[0,0.5],[1,0.5]];portConstraint=eastwest;whiteSpace=wrap;html=1;" parent="cLbF2slpCYDmgKNz8u4w-42" vertex="1">
                    <mxGeometry y="138" width="220" height="26" as="geometry"/>
                </mxCell>
                <mxCell id="cLbF2slpCYDmgKNz8u4w-46" value="&amp;lt;&amp;lt;Value object&amp;gt;&amp;gt;&lt;div&gt;Work Account Group ID&lt;/div&gt;" style="swimlane;fontStyle=1;align=center;verticalAlign=top;childLayout=stackLayout;horizontal=1;startSize=40;horizontalStack=0;resizeParent=1;resizeParentMax=0;resizeLast=0;collapsible=1;marginBottom=0;whiteSpace=wrap;html=1;" parent="1" vertex="1">
                    <mxGeometry x="600" y="600" width="180" height="104" as="geometry"/>
                </mxCell>
                <mxCell id="cLbF2slpCYDmgKNz8u4w-47" value="- work account group ID:string&lt;div&gt;&lt;br&gt;&lt;/div&gt;" style="text;strokeColor=none;fillColor=none;align=left;verticalAlign=top;spacingLeft=4;spacingRight=4;overflow=hidden;rotatable=0;points=[[0,0.5],[1,0.5]];portConstraint=eastwest;whiteSpace=wrap;html=1;" parent="cLbF2slpCYDmgKNz8u4w-46" vertex="1">
                    <mxGeometry y="40" width="180" height="30" as="geometry"/>
                </mxCell>
                <mxCell id="cLbF2slpCYDmgKNz8u4w-48" value="" style="line;strokeWidth=1;fillColor=none;align=left;verticalAlign=middle;spacingTop=-1;spacingLeft=3;spacingRight=3;rotatable=0;labelPosition=right;points=[];portConstraint=eastwest;strokeColor=inherit;" parent="cLbF2slpCYDmgKNz8u4w-46" vertex="1">
                    <mxGeometry y="70" width="180" height="8" as="geometry"/>
                </mxCell>
                <mxCell id="cLbF2slpCYDmgKNz8u4w-49" value="+ method(type): type" style="text;strokeColor=none;fillColor=none;align=left;verticalAlign=top;spacingLeft=4;spacingRight=4;overflow=hidden;rotatable=0;points=[[0,0.5],[1,0.5]];portConstraint=eastwest;whiteSpace=wrap;html=1;" parent="cLbF2slpCYDmgKNz8u4w-46" vertex="1">
                    <mxGeometry y="78" width="180" height="26" as="geometry"/>
                </mxCell>
                <mxCell id="cLbF2slpCYDmgKNz8u4w-50" style="edgeStyle=orthogonalEdgeStyle;rounded=0;orthogonalLoop=1;jettySize=auto;html=1;entryX=0.553;entryY=1.04;entryDx=0;entryDy=0;entryPerimeter=0;startArrow=diamond;startFill=1;endArrow=ERone;endFill=0;" parent="1" source="cLbF2slpCYDmgKNz8u4w-42" target="cLbF2slpCYDmgKNz8u4w-49" edge="1">
                    <mxGeometry relative="1" as="geometry"/>
                </mxCell>
                <mxCell id="cLbF2slpCYDmgKNz8u4w-51" style="edgeStyle=orthogonalEdgeStyle;rounded=0;orthogonalLoop=1;jettySize=auto;html=1;entryX=0;entryY=0.5;entryDx=0;entryDy=0;startArrow=diamond;startFill=0;endArrow=ERone;endFill=0;" parent="1" source="cLbF2slpCYDmgKNz8u4w-17" target="cLbF2slpCYDmgKNz8u4w-47" edge="1">
                    <mxGeometry relative="1" as="geometry">
                        <Array as="points">
                            <mxPoint x="570" y="500"/>
                            <mxPoint x="570" y="655"/>
                        </Array>
                    </mxGeometry>
                </mxCell>
                <mxCell id="cLbF2slpCYDmgKNz8u4w-84" value="&amp;lt;&amp;lt;Value object&amp;gt;&amp;gt;&lt;div&gt;Service ID&lt;/div&gt;" style="swimlane;fontStyle=1;align=center;verticalAlign=top;childLayout=stackLayout;horizontal=1;startSize=40;horizontalStack=0;resizeParent=1;resizeParentMax=0;resizeLast=0;collapsible=1;marginBottom=0;whiteSpace=wrap;html=1;" parent="1" vertex="1">
                    <mxGeometry x="2420" y="160" width="180" height="104" as="geometry"/>
                </mxCell>
                <mxCell id="cLbF2slpCYDmgKNz8u4w-85" value="- service ID:string&lt;div&gt;&lt;br&gt;&lt;/div&gt;" style="text;strokeColor=none;fillColor=none;align=left;verticalAlign=top;spacingLeft=4;spacingRight=4;overflow=hidden;rotatable=0;points=[[0,0.5],[1,0.5]];portConstraint=eastwest;whiteSpace=wrap;html=1;" parent="cLbF2slpCYDmgKNz8u4w-84" vertex="1">
                    <mxGeometry y="40" width="180" height="30" as="geometry"/>
                </mxCell>
                <mxCell id="cLbF2slpCYDmgKNz8u4w-86" value="" style="line;strokeWidth=1;fillColor=none;align=left;verticalAlign=middle;spacingTop=-1;spacingLeft=3;spacingRight=3;rotatable=0;labelPosition=right;points=[];portConstraint=eastwest;strokeColor=inherit;" parent="cLbF2slpCYDmgKNz8u4w-84" vertex="1">
                    <mxGeometry y="70" width="180" height="8" as="geometry"/>
                </mxCell>
                <mxCell id="cLbF2slpCYDmgKNz8u4w-87" value="+ method(type): type" style="text;strokeColor=none;fillColor=none;align=left;verticalAlign=top;spacingLeft=4;spacingRight=4;overflow=hidden;rotatable=0;points=[[0,0.5],[1,0.5]];portConstraint=eastwest;whiteSpace=wrap;html=1;" parent="cLbF2slpCYDmgKNz8u4w-84" vertex="1">
                    <mxGeometry y="78" width="180" height="26" as="geometry"/>
                </mxCell>
                <mxCell id="oweyubdisiPaoaLMB55q-84" style="edgeStyle=orthogonalEdgeStyle;rounded=0;orthogonalLoop=1;jettySize=auto;html=1;entryX=1;entryY=0.5;entryDx=0;entryDy=0;startArrow=diamond;startFill=1;endArrow=ERone;endFill=0;" parent="1" source="cLbF2slpCYDmgKNz8u4w-88" target="cLbF2slpCYDmgKNz8u4w-85" edge="1">
                    <mxGeometry relative="1" as="geometry"/>
                </mxCell>
                <mxCell id="cLbF2slpCYDmgKNz8u4w-88" value="&amp;lt;&amp;lt;Aggregate&amp;gt;&amp;gt;&lt;div&gt;Service&amp;nbsp;&lt;/div&gt;" style="swimlane;fontStyle=1;align=center;verticalAlign=top;childLayout=stackLayout;horizontal=1;startSize=40;horizontalStack=0;resizeParent=1;resizeParentMax=0;resizeLast=0;collapsible=1;marginBottom=0;whiteSpace=wrap;html=1;" parent="1" vertex="1">
                    <mxGeometry x="2690" y="128" width="230" height="154" as="geometry"/>
                </mxCell>
                <mxCell id="cLbF2slpCYDmgKNz8u4w-89" value="- Service ID:value object&lt;div&gt;- Service Company ID:value object&lt;/div&gt;&lt;div&gt;- customer return Address:string&lt;/div&gt;&lt;div&gt;- service provider return address:string&lt;br&gt;&lt;div&gt;- name:string&lt;/div&gt;&lt;/div&gt;" style="text;strokeColor=none;fillColor=none;align=left;verticalAlign=top;spacingLeft=4;spacingRight=4;overflow=hidden;rotatable=0;points=[[0,0.5],[1,0.5]];portConstraint=eastwest;whiteSpace=wrap;html=1;" parent="cLbF2slpCYDmgKNz8u4w-88" vertex="1">
                    <mxGeometry y="40" width="230" height="80" as="geometry"/>
                </mxCell>
                <mxCell id="cLbF2slpCYDmgKNz8u4w-90" value="" style="line;strokeWidth=1;fillColor=none;align=left;verticalAlign=middle;spacingTop=-1;spacingLeft=3;spacingRight=3;rotatable=0;labelPosition=right;points=[];portConstraint=eastwest;strokeColor=inherit;" parent="cLbF2slpCYDmgKNz8u4w-88" vertex="1">
                    <mxGeometry y="120" width="230" height="8" as="geometry"/>
                </mxCell>
                <mxCell id="cLbF2slpCYDmgKNz8u4w-91" value="+ method(type): type" style="text;strokeColor=none;fillColor=none;align=left;verticalAlign=top;spacingLeft=4;spacingRight=4;overflow=hidden;rotatable=0;points=[[0,0.5],[1,0.5]];portConstraint=eastwest;whiteSpace=wrap;html=1;" parent="cLbF2slpCYDmgKNz8u4w-88" vertex="1">
                    <mxGeometry y="128" width="230" height="26" as="geometry"/>
                </mxCell>
                <mxCell id="oweyubdisiPaoaLMB55q-86" style="edgeStyle=orthogonalEdgeStyle;rounded=0;orthogonalLoop=1;jettySize=auto;html=1;entryX=0.5;entryY=0;entryDx=0;entryDy=0;startArrow=diamond;startFill=1;endArrow=ERoneToMany;endFill=0;" parent="1" source="cLbF2slpCYDmgKNz8u4w-98" target="cLbF2slpCYDmgKNz8u4w-108" edge="1">
                    <mxGeometry relative="1" as="geometry"/>
                </mxCell>
                <mxCell id="cLbF2slpCYDmgKNz8u4w-98" value="&amp;lt;&amp;lt;Child entity&amp;gt;&amp;gt;&lt;div&gt;Resource&lt;/div&gt;" style="swimlane;fontStyle=1;align=center;verticalAlign=top;childLayout=stackLayout;horizontal=1;startSize=40;horizontalStack=0;resizeParent=1;resizeParentMax=0;resizeLast=0;collapsible=1;marginBottom=0;whiteSpace=wrap;html=1;" parent="1" vertex="1">
                    <mxGeometry x="2710" y="416" width="230" height="144" as="geometry"/>
                </mxCell>
                <mxCell id="cLbF2slpCYDmgKNz8u4w-99" value="- Resource ID:value object&lt;div&gt;- Service Company ID:value object&lt;/div&gt;&lt;div&gt;&lt;div&gt;- name:string&lt;/div&gt;&lt;/div&gt;&lt;div&gt;- audience&lt;/div&gt;" style="text;strokeColor=none;fillColor=none;align=left;verticalAlign=top;spacingLeft=4;spacingRight=4;overflow=hidden;rotatable=0;points=[[0,0.5],[1,0.5]];portConstraint=eastwest;whiteSpace=wrap;html=1;" parent="cLbF2slpCYDmgKNz8u4w-98" vertex="1">
                    <mxGeometry y="40" width="230" height="70" as="geometry"/>
                </mxCell>
                <mxCell id="cLbF2slpCYDmgKNz8u4w-100" value="" style="line;strokeWidth=1;fillColor=none;align=left;verticalAlign=middle;spacingTop=-1;spacingLeft=3;spacingRight=3;rotatable=0;labelPosition=right;points=[];portConstraint=eastwest;strokeColor=inherit;" parent="cLbF2slpCYDmgKNz8u4w-98" vertex="1">
                    <mxGeometry y="110" width="230" height="8" as="geometry"/>
                </mxCell>
                <mxCell id="cLbF2slpCYDmgKNz8u4w-101" value="+ method(type): type" style="text;strokeColor=none;fillColor=none;align=left;verticalAlign=top;spacingLeft=4;spacingRight=4;overflow=hidden;rotatable=0;points=[[0,0.5],[1,0.5]];portConstraint=eastwest;whiteSpace=wrap;html=1;" parent="cLbF2slpCYDmgKNz8u4w-98" vertex="1">
                    <mxGeometry y="118" width="230" height="26" as="geometry"/>
                </mxCell>
                <mxCell id="cLbF2slpCYDmgKNz8u4w-102" value="&amp;lt;&amp;lt;Value object&amp;gt;&amp;gt;&lt;div&gt;Resource ID&lt;/div&gt;" style="swimlane;fontStyle=1;align=center;verticalAlign=top;childLayout=stackLayout;horizontal=1;startSize=40;horizontalStack=0;resizeParent=1;resizeParentMax=0;resizeLast=0;collapsible=1;marginBottom=0;whiteSpace=wrap;html=1;" parent="1" vertex="1">
                    <mxGeometry x="2410" y="436" width="180" height="104" as="geometry"/>
                </mxCell>
                <mxCell id="cLbF2slpCYDmgKNz8u4w-103" value="- resource ID:string&lt;div&gt;&lt;br&gt;&lt;/div&gt;" style="text;strokeColor=none;fillColor=none;align=left;verticalAlign=top;spacingLeft=4;spacingRight=4;overflow=hidden;rotatable=0;points=[[0,0.5],[1,0.5]];portConstraint=eastwest;whiteSpace=wrap;html=1;" parent="cLbF2slpCYDmgKNz8u4w-102" vertex="1">
                    <mxGeometry y="40" width="180" height="30" as="geometry"/>
                </mxCell>
                <mxCell id="cLbF2slpCYDmgKNz8u4w-104" value="" style="line;strokeWidth=1;fillColor=none;align=left;verticalAlign=middle;spacingTop=-1;spacingLeft=3;spacingRight=3;rotatable=0;labelPosition=right;points=[];portConstraint=eastwest;strokeColor=inherit;" parent="cLbF2slpCYDmgKNz8u4w-102" vertex="1">
                    <mxGeometry y="70" width="180" height="8" as="geometry"/>
                </mxCell>
                <mxCell id="cLbF2slpCYDmgKNz8u4w-105" value="+ method(type): type" style="text;strokeColor=none;fillColor=none;align=left;verticalAlign=top;spacingLeft=4;spacingRight=4;overflow=hidden;rotatable=0;points=[[0,0.5],[1,0.5]];portConstraint=eastwest;whiteSpace=wrap;html=1;" parent="cLbF2slpCYDmgKNz8u4w-102" vertex="1">
                    <mxGeometry y="78" width="180" height="26" as="geometry"/>
                </mxCell>
                <mxCell id="cLbF2slpCYDmgKNz8u4w-106" style="edgeStyle=orthogonalEdgeStyle;rounded=0;orthogonalLoop=1;jettySize=auto;html=1;entryX=1.027;entryY=0.199;entryDx=0;entryDy=0;startArrow=diamond;startFill=1;endArrow=ERone;endFill=0;exitX=0;exitY=0.5;exitDx=0;exitDy=0;entryPerimeter=0;" parent="1" source="cLbF2slpCYDmgKNz8u4w-99" target="cLbF2slpCYDmgKNz8u4w-105" edge="1">
                    <mxGeometry relative="1" as="geometry"/>
                </mxCell>
                <mxCell id="cLbF2slpCYDmgKNz8u4w-108" value="&amp;lt;&amp;lt;Value object&amp;gt;&amp;gt;&lt;div&gt;Permission&lt;/div&gt;" style="swimlane;fontStyle=1;align=center;verticalAlign=top;childLayout=stackLayout;horizontal=1;startSize=40;horizontalStack=0;resizeParent=1;resizeParentMax=0;resizeLast=0;collapsible=1;marginBottom=0;whiteSpace=wrap;html=1;" parent="1" vertex="1">
                    <mxGeometry x="2710" y="679" width="230" height="154" as="geometry"/>
                </mxCell>
                <mxCell id="cLbF2slpCYDmgKNz8u4w-109" value="- Permission ID:value object&lt;div&gt;- Resource ID:value object&lt;/div&gt;&lt;div&gt;&lt;div&gt;- name:string&lt;/div&gt;&lt;/div&gt;&lt;div&gt;- audience:array&lt;/div&gt;" style="text;strokeColor=none;fillColor=none;align=left;verticalAlign=top;spacingLeft=4;spacingRight=4;overflow=hidden;rotatable=0;points=[[0,0.5],[1,0.5]];portConstraint=eastwest;whiteSpace=wrap;html=1;" parent="cLbF2slpCYDmgKNz8u4w-108" vertex="1">
                    <mxGeometry y="40" width="230" height="80" as="geometry"/>
                </mxCell>
                <mxCell id="cLbF2slpCYDmgKNz8u4w-110" value="" style="line;strokeWidth=1;fillColor=none;align=left;verticalAlign=middle;spacingTop=-1;spacingLeft=3;spacingRight=3;rotatable=0;labelPosition=right;points=[];portConstraint=eastwest;strokeColor=inherit;" parent="cLbF2slpCYDmgKNz8u4w-108" vertex="1">
                    <mxGeometry y="120" width="230" height="8" as="geometry"/>
                </mxCell>
                <mxCell id="cLbF2slpCYDmgKNz8u4w-111" value="+ method(type): type" style="text;strokeColor=none;fillColor=none;align=left;verticalAlign=top;spacingLeft=4;spacingRight=4;overflow=hidden;rotatable=0;points=[[0,0.5],[1,0.5]];portConstraint=eastwest;whiteSpace=wrap;html=1;" parent="cLbF2slpCYDmgKNz8u4w-108" vertex="1">
                    <mxGeometry y="128" width="230" height="26" as="geometry"/>
                </mxCell>
                <mxCell id="cLbF2slpCYDmgKNz8u4w-112" value="&amp;lt;&amp;lt;Value object&amp;gt;&amp;gt;&lt;div&gt;Permission ID&lt;/div&gt;" style="swimlane;fontStyle=1;align=center;verticalAlign=top;childLayout=stackLayout;horizontal=1;startSize=40;horizontalStack=0;resizeParent=1;resizeParentMax=0;resizeLast=0;collapsible=1;marginBottom=0;whiteSpace=wrap;html=1;" parent="1" vertex="1">
                    <mxGeometry x="2450" y="704" width="180" height="104" as="geometry"/>
                </mxCell>
                <mxCell id="cLbF2slpCYDmgKNz8u4w-113" value="- permission ID:string&lt;div&gt;&lt;br&gt;&lt;/div&gt;" style="text;strokeColor=none;fillColor=none;align=left;verticalAlign=top;spacingLeft=4;spacingRight=4;overflow=hidden;rotatable=0;points=[[0,0.5],[1,0.5]];portConstraint=eastwest;whiteSpace=wrap;html=1;" parent="cLbF2slpCYDmgKNz8u4w-112" vertex="1">
                    <mxGeometry y="40" width="180" height="30" as="geometry"/>
                </mxCell>
                <mxCell id="cLbF2slpCYDmgKNz8u4w-114" value="" style="line;strokeWidth=1;fillColor=none;align=left;verticalAlign=middle;spacingTop=-1;spacingLeft=3;spacingRight=3;rotatable=0;labelPosition=right;points=[];portConstraint=eastwest;strokeColor=inherit;" parent="cLbF2slpCYDmgKNz8u4w-112" vertex="1">
                    <mxGeometry y="70" width="180" height="8" as="geometry"/>
                </mxCell>
                <mxCell id="cLbF2slpCYDmgKNz8u4w-115" value="+ method(type): type" style="text;strokeColor=none;fillColor=none;align=left;verticalAlign=top;spacingLeft=4;spacingRight=4;overflow=hidden;rotatable=0;points=[[0,0.5],[1,0.5]];portConstraint=eastwest;whiteSpace=wrap;html=1;" parent="cLbF2slpCYDmgKNz8u4w-112" vertex="1">
                    <mxGeometry y="78" width="180" height="26" as="geometry"/>
                </mxCell>
                <mxCell id="cLbF2slpCYDmgKNz8u4w-116" style="edgeStyle=orthogonalEdgeStyle;rounded=0;orthogonalLoop=1;jettySize=auto;html=1;entryX=1.002;entryY=0.69;entryDx=0;entryDy=0;entryPerimeter=0;endArrow=ERone;endFill=0;startArrow=diamond;startFill=1;exitX=-0.006;exitY=0.645;exitDx=0;exitDy=0;exitPerimeter=0;" parent="1" source="cLbF2slpCYDmgKNz8u4w-109" target="cLbF2slpCYDmgKNz8u4w-113" edge="1">
                    <mxGeometry relative="1" as="geometry"/>
                </mxCell>
                <mxCell id="oweyubdisiPaoaLMB55q-22" value="&amp;lt;&amp;lt;Value object&amp;gt;&amp;gt;&lt;div&gt;Application Service ID&lt;/div&gt;" style="swimlane;fontStyle=1;align=center;verticalAlign=top;childLayout=stackLayout;horizontal=1;startSize=40;horizontalStack=0;resizeParent=1;resizeParentMax=0;resizeLast=0;collapsible=1;marginBottom=0;whiteSpace=wrap;html=1;" parent="1" vertex="1">
                    <mxGeometry x="1740" y="301" width="180" height="104" as="geometry"/>
                </mxCell>
                <mxCell id="oweyubdisiPaoaLMB55q-23" value="- Application service ID:string&lt;div&gt;&lt;br&gt;&lt;/div&gt;" style="text;strokeColor=none;fillColor=none;align=left;verticalAlign=top;spacingLeft=4;spacingRight=4;overflow=hidden;rotatable=0;points=[[0,0.5],[1,0.5]];portConstraint=eastwest;whiteSpace=wrap;html=1;" parent="oweyubdisiPaoaLMB55q-22" vertex="1">
                    <mxGeometry y="40" width="180" height="30" as="geometry"/>
                </mxCell>
                <mxCell id="oweyubdisiPaoaLMB55q-24" value="" style="line;strokeWidth=1;fillColor=none;align=left;verticalAlign=middle;spacingTop=-1;spacingLeft=3;spacingRight=3;rotatable=0;labelPosition=right;points=[];portConstraint=eastwest;strokeColor=inherit;" parent="oweyubdisiPaoaLMB55q-22" vertex="1">
                    <mxGeometry y="70" width="180" height="8" as="geometry"/>
                </mxCell>
                <mxCell id="oweyubdisiPaoaLMB55q-25" value="+ method(type): type" style="text;strokeColor=none;fillColor=none;align=left;verticalAlign=top;spacingLeft=4;spacingRight=4;overflow=hidden;rotatable=0;points=[[0,0.5],[1,0.5]];portConstraint=eastwest;whiteSpace=wrap;html=1;" parent="oweyubdisiPaoaLMB55q-22" vertex="1">
                    <mxGeometry y="78" width="180" height="26" as="geometry"/>
                </mxCell>
                <mxCell id="oweyubdisiPaoaLMB55q-88" style="edgeStyle=orthogonalEdgeStyle;rounded=0;orthogonalLoop=1;jettySize=auto;html=1;entryX=0;entryY=0.5;entryDx=0;entryDy=0;exitX=0.75;exitY=0;exitDx=0;exitDy=0;startArrow=diamond;startFill=0;endArrow=ERone;endFill=0;" parent="1" source="oweyubdisiPaoaLMB55q-26" edge="1">
                    <mxGeometry relative="1" as="geometry">
                        <mxPoint x="2153.68" y="351.2700000000001" as="sourcePoint"/>
                        <mxPoint x="2270" y="206" as="targetPoint"/>
                        <Array as="points">
                            <mxPoint x="2253" y="280"/>
                            <mxPoint x="2270" y="280"/>
                        </Array>
                    </mxGeometry>
                </mxCell>
                <mxCell id="oweyubdisiPaoaLMB55q-90" style="edgeStyle=orthogonalEdgeStyle;rounded=0;orthogonalLoop=1;jettySize=auto;html=1;entryX=0.5;entryY=0;entryDx=0;entryDy=0;startArrow=diamond;startFill=1;endArrow=ERmany;endFill=0;" parent="1" source="oweyubdisiPaoaLMB55q-26" target="oweyubdisiPaoaLMB55q-30" edge="1">
                    <mxGeometry relative="1" as="geometry"/>
                </mxCell>
                <mxCell id="oweyubdisiPaoaLMB55q-26" value="&amp;lt;&amp;lt;Child entity&amp;gt;&amp;gt;&lt;div&gt;Application Service&amp;nbsp;&lt;/div&gt;" style="swimlane;fontStyle=1;align=center;verticalAlign=top;childLayout=stackLayout;horizontal=1;startSize=40;horizontalStack=0;resizeParent=1;resizeParentMax=0;resizeLast=0;collapsible=1;marginBottom=0;whiteSpace=wrap;html=1;" parent="1" vertex="1">
                    <mxGeometry x="2080" y="312" width="230" height="144" as="geometry"/>
                </mxCell>
                <mxCell id="oweyubdisiPaoaLMB55q-27" value="- Application Service ID:value object&lt;div&gt;&lt;span style=&quot;background-color: initial;&quot;&gt;- Application ID:valie object&lt;/span&gt;&lt;/div&gt;&lt;div&gt;&lt;span style=&quot;background-color: initial;&quot;&gt;- Service ID: value object&lt;/span&gt;&lt;/div&gt;&lt;div&gt;&lt;span style=&quot;background-color: initial;&quot;&gt;- Application Resource:array&lt;/span&gt;&lt;/div&gt;&lt;div&gt;&lt;br&gt;&lt;/div&gt;" style="text;strokeColor=none;fillColor=none;align=left;verticalAlign=top;spacingLeft=4;spacingRight=4;overflow=hidden;rotatable=0;points=[[0,0.5],[1,0.5]];portConstraint=eastwest;whiteSpace=wrap;html=1;" parent="oweyubdisiPaoaLMB55q-26" vertex="1">
                    <mxGeometry y="40" width="230" height="70" as="geometry"/>
                </mxCell>
                <mxCell id="oweyubdisiPaoaLMB55q-28" value="" style="line;strokeWidth=1;fillColor=none;align=left;verticalAlign=middle;spacingTop=-1;spacingLeft=3;spacingRight=3;rotatable=0;labelPosition=right;points=[];portConstraint=eastwest;strokeColor=inherit;" parent="oweyubdisiPaoaLMB55q-26" vertex="1">
                    <mxGeometry y="110" width="230" height="8" as="geometry"/>
                </mxCell>
                <mxCell id="oweyubdisiPaoaLMB55q-29" value="+ method(type): type" style="text;strokeColor=none;fillColor=none;align=left;verticalAlign=top;spacingLeft=4;spacingRight=4;overflow=hidden;rotatable=0;points=[[0,0.5],[1,0.5]];portConstraint=eastwest;whiteSpace=wrap;html=1;" parent="oweyubdisiPaoaLMB55q-26" vertex="1">
                    <mxGeometry y="118" width="230" height="26" as="geometry"/>
                </mxCell>
                <mxCell id="oweyubdisiPaoaLMB55q-91" style="edgeStyle=orthogonalEdgeStyle;rounded=0;orthogonalLoop=1;jettySize=auto;html=1;entryX=0;entryY=0.5;entryDx=0;entryDy=0;exitX=1;exitY=0.5;exitDx=0;exitDy=0;startArrow=diamond;startFill=0;endArrow=ERone;endFill=0;" parent="1" source="oweyubdisiPaoaLMB55q-31" target="cLbF2slpCYDmgKNz8u4w-103" edge="1">
                    <mxGeometry relative="1" as="geometry"/>
                </mxCell>
                <mxCell id="oweyubdisiPaoaLMB55q-30" value="&amp;lt;&amp;lt;Child entity&amp;gt;&amp;gt;&lt;div&gt;Application Resource&lt;/div&gt;" style="swimlane;fontStyle=1;align=center;verticalAlign=top;childLayout=stackLayout;horizontal=1;startSize=40;horizontalStack=0;resizeParent=1;resizeParentMax=0;resizeLast=0;collapsible=1;marginBottom=0;whiteSpace=wrap;html=1;" parent="1" vertex="1">
                    <mxGeometry x="2090" y="540" width="230" height="154" as="geometry"/>
                </mxCell>
                <mxCell id="oweyubdisiPaoaLMB55q-31" value="- Application Resource ID:value object&lt;div&gt;&lt;div&gt;- Application Service ID:value object&lt;/div&gt;&lt;/div&gt;&lt;div&gt;- Application ID:value object&lt;/div&gt;&lt;div&gt;- Resource ID&lt;/div&gt;&lt;div&gt;- Application Permissions:array&lt;/div&gt;" style="text;strokeColor=none;fillColor=none;align=left;verticalAlign=top;spacingLeft=4;spacingRight=4;overflow=hidden;rotatable=0;points=[[0,0.5],[1,0.5]];portConstraint=eastwest;whiteSpace=wrap;html=1;" parent="oweyubdisiPaoaLMB55q-30" vertex="1">
                    <mxGeometry y="40" width="230" height="80" as="geometry"/>
                </mxCell>
                <mxCell id="oweyubdisiPaoaLMB55q-32" value="" style="line;strokeWidth=1;fillColor=none;align=left;verticalAlign=middle;spacingTop=-1;spacingLeft=3;spacingRight=3;rotatable=0;labelPosition=right;points=[];portConstraint=eastwest;strokeColor=inherit;" parent="oweyubdisiPaoaLMB55q-30" vertex="1">
                    <mxGeometry y="120" width="230" height="8" as="geometry"/>
                </mxCell>
                <mxCell id="oweyubdisiPaoaLMB55q-33" value="+ method(type): type" style="text;strokeColor=none;fillColor=none;align=left;verticalAlign=top;spacingLeft=4;spacingRight=4;overflow=hidden;rotatable=0;points=[[0,0.5],[1,0.5]];portConstraint=eastwest;whiteSpace=wrap;html=1;" parent="oweyubdisiPaoaLMB55q-30" vertex="1">
                    <mxGeometry y="128" width="230" height="26" as="geometry"/>
                </mxCell>
                <mxCell id="oweyubdisiPaoaLMB55q-34" value="&amp;lt;&amp;lt;Value object&amp;gt;&amp;gt;&lt;div&gt;Application Resource ID&lt;/div&gt;" style="swimlane;fontStyle=1;align=center;verticalAlign=top;childLayout=stackLayout;horizontal=1;startSize=40;horizontalStack=0;resizeParent=1;resizeParentMax=0;resizeLast=0;collapsible=1;marginBottom=0;whiteSpace=wrap;html=1;" parent="1" vertex="1">
                    <mxGeometry x="1750" y="550" width="180" height="104" as="geometry"/>
                </mxCell>
                <mxCell id="oweyubdisiPaoaLMB55q-35" value="- Application Resource ID:string&lt;div&gt;&lt;br&gt;&lt;/div&gt;" style="text;strokeColor=none;fillColor=none;align=left;verticalAlign=top;spacingLeft=4;spacingRight=4;overflow=hidden;rotatable=0;points=[[0,0.5],[1,0.5]];portConstraint=eastwest;whiteSpace=wrap;html=1;" parent="oweyubdisiPaoaLMB55q-34" vertex="1">
                    <mxGeometry y="40" width="180" height="30" as="geometry"/>
                </mxCell>
                <mxCell id="oweyubdisiPaoaLMB55q-36" value="" style="line;strokeWidth=1;fillColor=none;align=left;verticalAlign=middle;spacingTop=-1;spacingLeft=3;spacingRight=3;rotatable=0;labelPosition=right;points=[];portConstraint=eastwest;strokeColor=inherit;" parent="oweyubdisiPaoaLMB55q-34" vertex="1">
                    <mxGeometry y="70" width="180" height="8" as="geometry"/>
                </mxCell>
                <mxCell id="oweyubdisiPaoaLMB55q-37" value="+ method(type): type" style="text;strokeColor=none;fillColor=none;align=left;verticalAlign=top;spacingLeft=4;spacingRight=4;overflow=hidden;rotatable=0;points=[[0,0.5],[1,0.5]];portConstraint=eastwest;whiteSpace=wrap;html=1;" parent="oweyubdisiPaoaLMB55q-34" vertex="1">
                    <mxGeometry y="78" width="180" height="26" as="geometry"/>
                </mxCell>
                <mxCell id="oweyubdisiPaoaLMB55q-38" style="edgeStyle=orthogonalEdgeStyle;rounded=0;orthogonalLoop=1;jettySize=auto;html=1;entryX=1.027;entryY=0.199;entryDx=0;entryDy=0;startArrow=diamond;startFill=1;endArrow=ERone;endFill=0;exitX=-0.016;exitY=0.944;exitDx=0;exitDy=0;entryPerimeter=0;exitPerimeter=0;" parent="1" source="oweyubdisiPaoaLMB55q-31" target="oweyubdisiPaoaLMB55q-37" edge="1">
                    <mxGeometry relative="1" as="geometry"/>
                </mxCell>
                <mxCell id="oweyubdisiPaoaLMB55q-93" style="edgeStyle=orthogonalEdgeStyle;rounded=0;orthogonalLoop=1;jettySize=auto;html=1;entryX=0;entryY=0.5;entryDx=0;entryDy=0;startArrow=diamond;startFill=0;endArrow=ERone;endFill=0;" parent="1" source="oweyubdisiPaoaLMB55q-39" target="cLbF2slpCYDmgKNz8u4w-113" edge="1">
                    <mxGeometry relative="1" as="geometry"/>
                </mxCell>
                <mxCell id="oweyubdisiPaoaLMB55q-103" style="edgeStyle=orthogonalEdgeStyle;rounded=0;orthogonalLoop=1;jettySize=auto;html=1;entryX=1;entryY=0.25;entryDx=0;entryDy=0;startArrow=diamond;startFill=0;endArrow=ERone;endFill=0;exitX=0;exitY=0.5;exitDx=0;exitDy=0;" parent="1" source="oweyubdisiPaoaLMB55q-40" target="oweyubdisiPaoaLMB55q-94" edge="1">
                    <mxGeometry relative="1" as="geometry">
                        <Array as="points">
                            <mxPoint x="2090" y="837"/>
                            <mxPoint x="1990" y="837"/>
                            <mxPoint x="1990" y="92"/>
                            <mxPoint x="1950" y="92"/>
                            <mxPoint x="1950" y="82"/>
                        </Array>
                        <mxPoint x="2120" y="837" as="sourcePoint"/>
                        <mxPoint x="1950" y="87.00000000000023" as="targetPoint"/>
                    </mxGeometry>
                </mxCell>
                <mxCell id="oweyubdisiPaoaLMB55q-39" value="&amp;lt;&amp;lt;Value Object&amp;gt;&amp;gt;&lt;div&gt;Application Permission&lt;/div&gt;" style="swimlane;fontStyle=1;align=center;verticalAlign=top;childLayout=stackLayout;horizontal=1;startSize=40;horizontalStack=0;resizeParent=1;resizeParentMax=0;resizeLast=0;collapsible=1;marginBottom=0;whiteSpace=wrap;html=1;" parent="1" vertex="1">
                    <mxGeometry x="2090" y="750" width="230" height="144" as="geometry"/>
                </mxCell>
                <mxCell id="oweyubdisiPaoaLMB55q-40" value="- Application Permission ID:value object&lt;div&gt;- Application Resource ID:value object&lt;/div&gt;&lt;div&gt;&lt;div&gt;- Application ID:value object&lt;/div&gt;&lt;/div&gt;&lt;div&gt;- Permission ID:value object&lt;/div&gt;" style="text;strokeColor=none;fillColor=none;align=left;verticalAlign=top;spacingLeft=4;spacingRight=4;overflow=hidden;rotatable=0;points=[[0,0.5],[1,0.5]];portConstraint=eastwest;whiteSpace=wrap;html=1;" parent="oweyubdisiPaoaLMB55q-39" vertex="1">
                    <mxGeometry y="40" width="230" height="70" as="geometry"/>
                </mxCell>
                <mxCell id="oweyubdisiPaoaLMB55q-41" value="" style="line;strokeWidth=1;fillColor=none;align=left;verticalAlign=middle;spacingTop=-1;spacingLeft=3;spacingRight=3;rotatable=0;labelPosition=right;points=[];portConstraint=eastwest;strokeColor=inherit;" parent="oweyubdisiPaoaLMB55q-39" vertex="1">
                    <mxGeometry y="110" width="230" height="8" as="geometry"/>
                </mxCell>
                <mxCell id="oweyubdisiPaoaLMB55q-42" value="+ method(type): type" style="text;strokeColor=none;fillColor=none;align=left;verticalAlign=top;spacingLeft=4;spacingRight=4;overflow=hidden;rotatable=0;points=[[0,0.5],[1,0.5]];portConstraint=eastwest;whiteSpace=wrap;html=1;" parent="oweyubdisiPaoaLMB55q-39" vertex="1">
                    <mxGeometry y="118" width="230" height="26" as="geometry"/>
                </mxCell>
                <mxCell id="oweyubdisiPaoaLMB55q-43" value="&amp;lt;&amp;lt;Value object&amp;gt;&amp;gt;&lt;div&gt;Application Permission ID&lt;/div&gt;" style="swimlane;fontStyle=1;align=center;verticalAlign=top;childLayout=stackLayout;horizontal=1;startSize=40;horizontalStack=0;resizeParent=1;resizeParentMax=0;resizeLast=0;collapsible=1;marginBottom=0;whiteSpace=wrap;html=1;" parent="1" vertex="1">
                    <mxGeometry x="1760" y="800" width="190" height="104" as="geometry"/>
                </mxCell>
                <mxCell id="oweyubdisiPaoaLMB55q-44" value="- Application permission ID:string&lt;div&gt;&lt;br&gt;&lt;/div&gt;" style="text;strokeColor=none;fillColor=none;align=left;verticalAlign=top;spacingLeft=4;spacingRight=4;overflow=hidden;rotatable=0;points=[[0,0.5],[1,0.5]];portConstraint=eastwest;whiteSpace=wrap;html=1;" parent="oweyubdisiPaoaLMB55q-43" vertex="1">
                    <mxGeometry y="40" width="190" height="30" as="geometry"/>
                </mxCell>
                <mxCell id="oweyubdisiPaoaLMB55q-45" value="" style="line;strokeWidth=1;fillColor=none;align=left;verticalAlign=middle;spacingTop=-1;spacingLeft=3;spacingRight=3;rotatable=0;labelPosition=right;points=[];portConstraint=eastwest;strokeColor=inherit;" parent="oweyubdisiPaoaLMB55q-43" vertex="1">
                    <mxGeometry y="70" width="190" height="8" as="geometry"/>
                </mxCell>
                <mxCell id="oweyubdisiPaoaLMB55q-46" value="+ method(type): type" style="text;strokeColor=none;fillColor=none;align=left;verticalAlign=top;spacingLeft=4;spacingRight=4;overflow=hidden;rotatable=0;points=[[0,0.5],[1,0.5]];portConstraint=eastwest;whiteSpace=wrap;html=1;" parent="oweyubdisiPaoaLMB55q-43" vertex="1">
                    <mxGeometry y="78" width="190" height="26" as="geometry"/>
                </mxCell>
                <mxCell id="oweyubdisiPaoaLMB55q-47" style="edgeStyle=orthogonalEdgeStyle;rounded=0;orthogonalLoop=1;jettySize=auto;html=1;entryX=1.002;entryY=0.69;entryDx=0;entryDy=0;entryPerimeter=0;endArrow=ERone;endFill=0;startArrow=diamond;startFill=1;exitX=-0.011;exitY=0.879;exitDx=0;exitDy=0;exitPerimeter=0;" parent="1" source="oweyubdisiPaoaLMB55q-40" target="oweyubdisiPaoaLMB55q-44" edge="1">
                    <mxGeometry relative="1" as="geometry"/>
                </mxCell>
                <mxCell id="oweyubdisiPaoaLMB55q-87" style="edgeStyle=orthogonalEdgeStyle;rounded=0;orthogonalLoop=1;jettySize=auto;html=1;entryX=0.5;entryY=0;entryDx=0;entryDy=0;startArrow=diamond;startFill=1;endArrow=ERoneToMany;endFill=0;" parent="1" source="oweyubdisiPaoaLMB55q-50" target="oweyubdisiPaoaLMB55q-26" edge="1">
                    <mxGeometry relative="1" as="geometry"/>
                </mxCell>
                <mxCell id="oweyubdisiPaoaLMB55q-98" style="edgeStyle=orthogonalEdgeStyle;rounded=0;orthogonalLoop=1;jettySize=auto;html=1;entryX=1;entryY=0.5;entryDx=0;entryDy=0;startArrow=diamond;startFill=1;endArrow=ERone;endFill=0;" parent="1" source="oweyubdisiPaoaLMB55q-50" target="oweyubdisiPaoaLMB55q-95" edge="1">
                    <mxGeometry relative="1" as="geometry"/>
                </mxCell>
                <mxCell id="oweyubdisiPaoaLMB55q-50" value="&amp;lt;&amp;lt;Aggregate&amp;gt;&amp;gt;&lt;div&gt;Application&amp;nbsp;&lt;/div&gt;" style="swimlane;fontStyle=1;align=center;verticalAlign=top;childLayout=stackLayout;horizontal=1;startSize=40;horizontalStack=0;resizeParent=1;resizeParentMax=0;resizeLast=0;collapsible=1;marginBottom=0;whiteSpace=wrap;html=1;" parent="1" vertex="1">
                    <mxGeometry x="2090" y="21" width="230" height="184" as="geometry"/>
                </mxCell>
                <mxCell id="oweyubdisiPaoaLMB55q-51" value="- Application ID:value object&lt;div&gt;&lt;span style=&quot;background-color: initial;&quot;&gt;- Organization ID:valie object&lt;/span&gt;&lt;/div&gt;&lt;div&gt;&lt;span style=&quot;background-color: initial;&quot;&gt;- Application Name:value object&lt;/span&gt;&lt;/div&gt;&lt;div&gt;&lt;span style=&quot;background-color: initial;&quot;&gt;- Access URL: string&lt;/span&gt;&lt;/div&gt;&lt;div&gt;&lt;span style=&quot;background-color: initial;&quot;&gt;- Redirect URL:string&lt;/span&gt;&lt;/div&gt;&lt;div&gt;&lt;span style=&quot;background-color: initial;&quot;&gt;- Application Services:array&lt;/span&gt;&lt;/div&gt;&lt;div&gt;&lt;span style=&quot;background-color: initial;&quot;&gt;- Status:boolean&lt;/span&gt;&lt;/div&gt;" style="text;strokeColor=none;fillColor=none;align=left;verticalAlign=top;spacingLeft=4;spacingRight=4;overflow=hidden;rotatable=0;points=[[0,0.5],[1,0.5]];portConstraint=eastwest;whiteSpace=wrap;html=1;" parent="oweyubdisiPaoaLMB55q-50" vertex="1">
                    <mxGeometry y="40" width="230" height="110" as="geometry"/>
                </mxCell>
                <mxCell id="oweyubdisiPaoaLMB55q-52" value="" style="line;strokeWidth=1;fillColor=none;align=left;verticalAlign=middle;spacingTop=-1;spacingLeft=3;spacingRight=3;rotatable=0;labelPosition=right;points=[];portConstraint=eastwest;strokeColor=inherit;" parent="oweyubdisiPaoaLMB55q-50" vertex="1">
                    <mxGeometry y="150" width="230" height="8" as="geometry"/>
                </mxCell>
                <mxCell id="oweyubdisiPaoaLMB55q-53" value="+ method(type): type" style="text;strokeColor=none;fillColor=none;align=left;verticalAlign=top;spacingLeft=4;spacingRight=4;overflow=hidden;rotatable=0;points=[[0,0.5],[1,0.5]];portConstraint=eastwest;whiteSpace=wrap;html=1;" parent="oweyubdisiPaoaLMB55q-50" vertex="1">
                    <mxGeometry y="158" width="230" height="26" as="geometry"/>
                </mxCell>
                <mxCell id="oweyubdisiPaoaLMB55q-108" style="edgeStyle=orthogonalEdgeStyle;rounded=0;orthogonalLoop=1;jettySize=auto;html=1;entryX=1;entryY=0.5;entryDx=0;entryDy=0;startArrow=diamond;startFill=1;endArrow=ERone;endFill=0;exitX=0.01;exitY=0.193;exitDx=0;exitDy=0;exitPerimeter=0;" parent="1" source="oweyubdisiPaoaLMB55q-54" target="oweyubdisiPaoaLMB55q-105" edge="1">
                    <mxGeometry relative="1" as="geometry"/>
                </mxCell>
                <mxCell id="oweyubdisiPaoaLMB55q-54" value="&amp;lt;&amp;lt;Aggregate&amp;gt;&amp;gt;&lt;div&gt;Role&lt;/div&gt;" style="swimlane;fontStyle=1;align=center;verticalAlign=top;childLayout=stackLayout;horizontal=1;startSize=40;horizontalStack=0;resizeParent=1;resizeParentMax=0;resizeLast=0;collapsible=1;marginBottom=0;whiteSpace=wrap;html=1;" parent="1" vertex="1">
                    <mxGeometry x="1440" y="56" width="230" height="164" as="geometry"/>
                </mxCell>
                <mxCell id="oweyubdisiPaoaLMB55q-55" value="- Role ID:value object&lt;div&gt;&lt;span style=&quot;background-color: initial;&quot;&gt;- Organization ID:valie object&lt;/span&gt;&lt;/div&gt;&lt;div&gt;&lt;span style=&quot;background-color: initial;&quot;&gt;- RoleName:value object&lt;/span&gt;&lt;/div&gt;&lt;div&gt;&lt;span style=&quot;background-color: initial;&quot;&gt;- Role Services:array&lt;/span&gt;&lt;br&gt;&lt;/div&gt;&lt;div&gt;&lt;span style=&quot;background-color: initial;&quot;&gt;- Status:boolean&lt;/span&gt;&lt;/div&gt;" style="text;strokeColor=none;fillColor=none;align=left;verticalAlign=top;spacingLeft=4;spacingRight=4;overflow=hidden;rotatable=0;points=[[0,0.5],[1,0.5]];portConstraint=eastwest;whiteSpace=wrap;html=1;" parent="oweyubdisiPaoaLMB55q-54" vertex="1">
                    <mxGeometry y="40" width="230" height="90" as="geometry"/>
                </mxCell>
                <mxCell id="oweyubdisiPaoaLMB55q-56" value="" style="line;strokeWidth=1;fillColor=none;align=left;verticalAlign=middle;spacingTop=-1;spacingLeft=3;spacingRight=3;rotatable=0;labelPosition=right;points=[];portConstraint=eastwest;strokeColor=inherit;" parent="oweyubdisiPaoaLMB55q-54" vertex="1">
                    <mxGeometry y="130" width="230" height="8" as="geometry"/>
                </mxCell>
                <mxCell id="oweyubdisiPaoaLMB55q-57" value="+ method(type): type" style="text;strokeColor=none;fillColor=none;align=left;verticalAlign=top;spacingLeft=4;spacingRight=4;overflow=hidden;rotatable=0;points=[[0,0.5],[1,0.5]];portConstraint=eastwest;whiteSpace=wrap;html=1;" parent="oweyubdisiPaoaLMB55q-54" vertex="1">
                    <mxGeometry y="138" width="230" height="26" as="geometry"/>
                </mxCell>
                <mxCell id="oweyubdisiPaoaLMB55q-58" value="&amp;lt;&amp;lt;Value object&amp;gt;&amp;gt;&lt;div&gt;Role Service ID&lt;/div&gt;" style="swimlane;fontStyle=1;align=center;verticalAlign=top;childLayout=stackLayout;horizontal=1;startSize=40;horizontalStack=0;resizeParent=1;resizeParentMax=0;resizeLast=0;collapsible=1;marginBottom=0;whiteSpace=wrap;html=1;" parent="1" vertex="1">
                    <mxGeometry x="1150" y="470" width="180" height="104" as="geometry"/>
                </mxCell>
                <mxCell id="oweyubdisiPaoaLMB55q-59" value="- Role service ID:string&lt;div&gt;&lt;br&gt;&lt;/div&gt;" style="text;strokeColor=none;fillColor=none;align=left;verticalAlign=top;spacingLeft=4;spacingRight=4;overflow=hidden;rotatable=0;points=[[0,0.5],[1,0.5]];portConstraint=eastwest;whiteSpace=wrap;html=1;" parent="oweyubdisiPaoaLMB55q-58" vertex="1">
                    <mxGeometry y="40" width="180" height="30" as="geometry"/>
                </mxCell>
                <mxCell id="oweyubdisiPaoaLMB55q-60" value="" style="line;strokeWidth=1;fillColor=none;align=left;verticalAlign=middle;spacingTop=-1;spacingLeft=3;spacingRight=3;rotatable=0;labelPosition=right;points=[];portConstraint=eastwest;strokeColor=inherit;" parent="oweyubdisiPaoaLMB55q-58" vertex="1">
                    <mxGeometry y="70" width="180" height="8" as="geometry"/>
                </mxCell>
                <mxCell id="oweyubdisiPaoaLMB55q-61" value="+ method(type): type" style="text;strokeColor=none;fillColor=none;align=left;verticalAlign=top;spacingLeft=4;spacingRight=4;overflow=hidden;rotatable=0;points=[[0,0.5],[1,0.5]];portConstraint=eastwest;whiteSpace=wrap;html=1;" parent="oweyubdisiPaoaLMB55q-58" vertex="1">
                    <mxGeometry y="78" width="180" height="26" as="geometry"/>
                </mxCell>
                <mxCell id="oweyubdisiPaoaLMB55q-111" style="edgeStyle=orthogonalEdgeStyle;rounded=0;orthogonalLoop=1;jettySize=auto;html=1;entryX=1;entryY=0.25;entryDx=0;entryDy=0;startArrow=diamond;startFill=1;endArrow=ERone;endFill=0;exitX=-0.006;exitY=0.214;exitDx=0;exitDy=0;exitPerimeter=0;" parent="1" source="oweyubdisiPaoaLMB55q-65" target="oweyubdisiPaoaLMB55q-58" edge="1">
                    <mxGeometry relative="1" as="geometry"/>
                </mxCell>
                <mxCell id="oweyubdisiPaoaLMB55q-62" value="&amp;lt;&amp;lt;Child entity&amp;gt;&amp;gt;&lt;div&gt;Role Service&amp;nbsp;&lt;/div&gt;" style="swimlane;fontStyle=1;align=center;verticalAlign=top;childLayout=stackLayout;horizontal=1;startSize=40;horizontalStack=0;resizeParent=1;resizeParentMax=0;resizeLast=0;collapsible=1;marginBottom=0;whiteSpace=wrap;html=1;" parent="1" vertex="1">
                    <mxGeometry x="1460" y="375" width="230" height="144" as="geometry"/>
                </mxCell>
                <mxCell id="oweyubdisiPaoaLMB55q-63" value="- Role Service ID:value object&lt;div&gt;&lt;span style=&quot;background-color: initial;&quot;&gt;- Role ID:valie object&lt;/span&gt;&lt;/div&gt;&lt;div&gt;&lt;span style=&quot;background-color: initial;&quot;&gt;- Service ID: value object&lt;/span&gt;&lt;/div&gt;&lt;div&gt;&lt;span style=&quot;background-color: initial;&quot;&gt;- Role Resource:array&lt;/span&gt;&lt;/div&gt;&lt;div&gt;&lt;br&gt;&lt;/div&gt;" style="text;strokeColor=none;fillColor=none;align=left;verticalAlign=top;spacingLeft=4;spacingRight=4;overflow=hidden;rotatable=0;points=[[0,0.5],[1,0.5]];portConstraint=eastwest;whiteSpace=wrap;html=1;" parent="oweyubdisiPaoaLMB55q-62" vertex="1">
                    <mxGeometry y="40" width="230" height="70" as="geometry"/>
                </mxCell>
                <mxCell id="oweyubdisiPaoaLMB55q-64" value="" style="line;strokeWidth=1;fillColor=none;align=left;verticalAlign=middle;spacingTop=-1;spacingLeft=3;spacingRight=3;rotatable=0;labelPosition=right;points=[];portConstraint=eastwest;strokeColor=inherit;" parent="oweyubdisiPaoaLMB55q-62" vertex="1">
                    <mxGeometry y="110" width="230" height="8" as="geometry"/>
                </mxCell>
                <mxCell id="oweyubdisiPaoaLMB55q-65" value="+ method(type): type" style="text;strokeColor=none;fillColor=none;align=left;verticalAlign=top;spacingLeft=4;spacingRight=4;overflow=hidden;rotatable=0;points=[[0,0.5],[1,0.5]];portConstraint=eastwest;whiteSpace=wrap;html=1;" parent="oweyubdisiPaoaLMB55q-62" vertex="1">
                    <mxGeometry y="118" width="230" height="26" as="geometry"/>
                </mxCell>
                <mxCell id="oweyubdisiPaoaLMB55q-113" style="edgeStyle=orthogonalEdgeStyle;rounded=0;orthogonalLoop=1;jettySize=auto;html=1;entryX=0.5;entryY=0;entryDx=0;entryDy=0;startArrow=diamond;startFill=1;endArrow=ERoneToMany;endFill=0;" parent="1" source="oweyubdisiPaoaLMB55q-66" target="oweyubdisiPaoaLMB55q-75" edge="1">
                    <mxGeometry relative="1" as="geometry"/>
                </mxCell>
                <mxCell id="oweyubdisiPaoaLMB55q-66" value="&amp;lt;&amp;lt;Child entity&amp;gt;&amp;gt;&lt;div&gt;Role Resource&lt;/div&gt;" style="swimlane;fontStyle=1;align=center;verticalAlign=top;childLayout=stackLayout;horizontal=1;startSize=40;horizontalStack=0;resizeParent=1;resizeParentMax=0;resizeLast=0;collapsible=1;marginBottom=0;whiteSpace=wrap;html=1;" parent="1" vertex="1">
                    <mxGeometry x="1450" y="640" width="230" height="154" as="geometry"/>
                </mxCell>
                <mxCell id="oweyubdisiPaoaLMB55q-67" value="- Role Resource ID:value object&lt;div&gt;&lt;div&gt;- Role Service ID:value object&lt;/div&gt;&lt;/div&gt;&lt;div&gt;- Role ID:value object&lt;/div&gt;&lt;div&gt;- Resource ID&lt;/div&gt;&lt;div&gt;- Role Permissions:array&lt;/div&gt;" style="text;strokeColor=none;fillColor=none;align=left;verticalAlign=top;spacingLeft=4;spacingRight=4;overflow=hidden;rotatable=0;points=[[0,0.5],[1,0.5]];portConstraint=eastwest;whiteSpace=wrap;html=1;" parent="oweyubdisiPaoaLMB55q-66" vertex="1">
                    <mxGeometry y="40" width="230" height="80" as="geometry"/>
                </mxCell>
                <mxCell id="oweyubdisiPaoaLMB55q-68" value="" style="line;strokeWidth=1;fillColor=none;align=left;verticalAlign=middle;spacingTop=-1;spacingLeft=3;spacingRight=3;rotatable=0;labelPosition=right;points=[];portConstraint=eastwest;strokeColor=inherit;" parent="oweyubdisiPaoaLMB55q-66" vertex="1">
                    <mxGeometry y="120" width="230" height="8" as="geometry"/>
                </mxCell>
                <mxCell id="oweyubdisiPaoaLMB55q-69" value="+ method(type): type" style="text;strokeColor=none;fillColor=none;align=left;verticalAlign=top;spacingLeft=4;spacingRight=4;overflow=hidden;rotatable=0;points=[[0,0.5],[1,0.5]];portConstraint=eastwest;whiteSpace=wrap;html=1;" parent="oweyubdisiPaoaLMB55q-66" vertex="1">
                    <mxGeometry y="128" width="230" height="26" as="geometry"/>
                </mxCell>
                <mxCell id="oweyubdisiPaoaLMB55q-70" value="&amp;lt;&amp;lt;Value object&amp;gt;&amp;gt;&lt;div&gt;Role Resource ID&lt;/div&gt;" style="swimlane;fontStyle=1;align=center;verticalAlign=top;childLayout=stackLayout;horizontal=1;startSize=40;horizontalStack=0;resizeParent=1;resizeParentMax=0;resizeLast=0;collapsible=1;marginBottom=0;whiteSpace=wrap;html=1;" parent="1" vertex="1">
                    <mxGeometry x="1170" y="690" width="180" height="104" as="geometry"/>
                </mxCell>
                <mxCell id="oweyubdisiPaoaLMB55q-71" value="- Role Resource ID:string&lt;div&gt;&lt;br&gt;&lt;/div&gt;" style="text;strokeColor=none;fillColor=none;align=left;verticalAlign=top;spacingLeft=4;spacingRight=4;overflow=hidden;rotatable=0;points=[[0,0.5],[1,0.5]];portConstraint=eastwest;whiteSpace=wrap;html=1;" parent="oweyubdisiPaoaLMB55q-70" vertex="1">
                    <mxGeometry y="40" width="180" height="30" as="geometry"/>
                </mxCell>
                <mxCell id="oweyubdisiPaoaLMB55q-72" value="" style="line;strokeWidth=1;fillColor=none;align=left;verticalAlign=middle;spacingTop=-1;spacingLeft=3;spacingRight=3;rotatable=0;labelPosition=right;points=[];portConstraint=eastwest;strokeColor=inherit;" parent="oweyubdisiPaoaLMB55q-70" vertex="1">
                    <mxGeometry y="70" width="180" height="8" as="geometry"/>
                </mxCell>
                <mxCell id="oweyubdisiPaoaLMB55q-73" value="+ method(type): type" style="text;strokeColor=none;fillColor=none;align=left;verticalAlign=top;spacingLeft=4;spacingRight=4;overflow=hidden;rotatable=0;points=[[0,0.5],[1,0.5]];portConstraint=eastwest;whiteSpace=wrap;html=1;" parent="oweyubdisiPaoaLMB55q-70" vertex="1">
                    <mxGeometry y="78" width="180" height="26" as="geometry"/>
                </mxCell>
                <mxCell id="oweyubdisiPaoaLMB55q-74" style="edgeStyle=orthogonalEdgeStyle;rounded=0;orthogonalLoop=1;jettySize=auto;html=1;entryX=1.027;entryY=0.199;entryDx=0;entryDy=0;startArrow=diamond;startFill=1;endArrow=ERone;endFill=0;exitX=-0.008;exitY=0.672;exitDx=0;exitDy=0;entryPerimeter=0;exitPerimeter=0;" parent="1" source="oweyubdisiPaoaLMB55q-67" target="oweyubdisiPaoaLMB55q-73" edge="1">
                    <mxGeometry relative="1" as="geometry"/>
                </mxCell>
                <mxCell id="oweyubdisiPaoaLMB55q-75" value="&amp;lt;&amp;lt;Value Object&amp;gt;&amp;gt;&lt;div&gt;Role Permission&lt;/div&gt;" style="swimlane;fontStyle=1;align=center;verticalAlign=top;childLayout=stackLayout;horizontal=1;startSize=40;horizontalStack=0;resizeParent=1;resizeParentMax=0;resizeLast=0;collapsible=1;marginBottom=0;whiteSpace=wrap;html=1;" parent="1" vertex="1">
                    <mxGeometry x="1450" y="880" width="230" height="144" as="geometry"/>
                </mxCell>
                <mxCell id="oweyubdisiPaoaLMB55q-76" value="- Role Permission ID:value object&lt;div&gt;- Role Resource ID:value object&lt;/div&gt;&lt;div&gt;&lt;div&gt;- Role ID:value object&lt;/div&gt;&lt;/div&gt;&lt;div&gt;- Permission ID:value object&lt;/div&gt;" style="text;strokeColor=none;fillColor=none;align=left;verticalAlign=top;spacingLeft=4;spacingRight=4;overflow=hidden;rotatable=0;points=[[0,0.5],[1,0.5]];portConstraint=eastwest;whiteSpace=wrap;html=1;" parent="oweyubdisiPaoaLMB55q-75" vertex="1">
                    <mxGeometry y="40" width="230" height="70" as="geometry"/>
                </mxCell>
                <mxCell id="oweyubdisiPaoaLMB55q-77" value="" style="line;strokeWidth=1;fillColor=none;align=left;verticalAlign=middle;spacingTop=-1;spacingLeft=3;spacingRight=3;rotatable=0;labelPosition=right;points=[];portConstraint=eastwest;strokeColor=inherit;" parent="oweyubdisiPaoaLMB55q-75" vertex="1">
                    <mxGeometry y="110" width="230" height="8" as="geometry"/>
                </mxCell>
                <mxCell id="oweyubdisiPaoaLMB55q-78" value="+ method(type): type" style="text;strokeColor=none;fillColor=none;align=left;verticalAlign=top;spacingLeft=4;spacingRight=4;overflow=hidden;rotatable=0;points=[[0,0.5],[1,0.5]];portConstraint=eastwest;whiteSpace=wrap;html=1;" parent="oweyubdisiPaoaLMB55q-75" vertex="1">
                    <mxGeometry y="118" width="230" height="26" as="geometry"/>
                </mxCell>
                <mxCell id="oweyubdisiPaoaLMB55q-79" value="&amp;lt;&amp;lt;Value object&amp;gt;&amp;gt;&lt;div&gt;Role Permission ID&lt;/div&gt;" style="swimlane;fontStyle=1;align=center;verticalAlign=top;childLayout=stackLayout;horizontal=1;startSize=40;horizontalStack=0;resizeParent=1;resizeParentMax=0;resizeLast=0;collapsible=1;marginBottom=0;whiteSpace=wrap;html=1;" parent="1" vertex="1">
                    <mxGeometry x="1120" y="870" width="190" height="104" as="geometry"/>
                </mxCell>
                <mxCell id="oweyubdisiPaoaLMB55q-80" value="- Id:string&lt;div&gt;&lt;br&gt;&lt;/div&gt;" style="text;strokeColor=none;fillColor=none;align=left;verticalAlign=top;spacingLeft=4;spacingRight=4;overflow=hidden;rotatable=0;points=[[0,0.5],[1,0.5]];portConstraint=eastwest;whiteSpace=wrap;html=1;" parent="oweyubdisiPaoaLMB55q-79" vertex="1">
                    <mxGeometry y="40" width="190" height="30" as="geometry"/>
                </mxCell>
                <mxCell id="oweyubdisiPaoaLMB55q-81" value="" style="line;strokeWidth=1;fillColor=none;align=left;verticalAlign=middle;spacingTop=-1;spacingLeft=3;spacingRight=3;rotatable=0;labelPosition=right;points=[];portConstraint=eastwest;strokeColor=inherit;" parent="oweyubdisiPaoaLMB55q-79" vertex="1">
                    <mxGeometry y="70" width="190" height="8" as="geometry"/>
                </mxCell>
                <mxCell id="oweyubdisiPaoaLMB55q-82" value="+ method(type): type" style="text;strokeColor=none;fillColor=none;align=left;verticalAlign=top;spacingLeft=4;spacingRight=4;overflow=hidden;rotatable=0;points=[[0,0.5],[1,0.5]];portConstraint=eastwest;whiteSpace=wrap;html=1;" parent="oweyubdisiPaoaLMB55q-79" vertex="1">
                    <mxGeometry y="78" width="190" height="26" as="geometry"/>
                </mxCell>
                <mxCell id="oweyubdisiPaoaLMB55q-83" style="edgeStyle=orthogonalEdgeStyle;rounded=0;orthogonalLoop=1;jettySize=auto;html=1;entryX=1.002;entryY=0.69;entryDx=0;entryDy=0;entryPerimeter=0;endArrow=ERone;endFill=0;startArrow=diamond;startFill=1;exitX=-0.006;exitY=0.645;exitDx=0;exitDy=0;exitPerimeter=0;" parent="1" source="oweyubdisiPaoaLMB55q-76" target="oweyubdisiPaoaLMB55q-80" edge="1">
                    <mxGeometry relative="1" as="geometry"/>
                </mxCell>
                <mxCell id="oweyubdisiPaoaLMB55q-85" style="edgeStyle=orthogonalEdgeStyle;rounded=0;orthogonalLoop=1;jettySize=auto;html=1;entryX=0.418;entryY=0.012;entryDx=0;entryDy=0;entryPerimeter=0;startArrow=diamond;startFill=1;endArrow=ERoneToMany;endFill=0;" parent="1" source="cLbF2slpCYDmgKNz8u4w-88" target="cLbF2slpCYDmgKNz8u4w-98" edge="1">
                    <mxGeometry relative="1" as="geometry"/>
                </mxCell>
                <mxCell id="oweyubdisiPaoaLMB55q-89" style="edgeStyle=orthogonalEdgeStyle;rounded=0;orthogonalLoop=1;jettySize=auto;html=1;entryX=1;entryY=0.5;entryDx=0;entryDy=0;startArrow=diamond;startFill=1;endArrow=ERone;endFill=0;exitX=-0.005;exitY=0.85;exitDx=0;exitDy=0;exitPerimeter=0;" parent="1" source="oweyubdisiPaoaLMB55q-27" target="oweyubdisiPaoaLMB55q-23" edge="1">
                    <mxGeometry relative="1" as="geometry"/>
                </mxCell>
                <mxCell id="oweyubdisiPaoaLMB55q-92" style="edgeStyle=orthogonalEdgeStyle;rounded=0;orthogonalLoop=1;jettySize=auto;html=1;entryX=0.457;entryY=0.01;entryDx=0;entryDy=0;entryPerimeter=0;startArrow=diamond;startFill=1;endArrow=ERmany;endFill=0;" parent="1" source="oweyubdisiPaoaLMB55q-30" target="oweyubdisiPaoaLMB55q-39" edge="1">
                    <mxGeometry relative="1" as="geometry"/>
                </mxCell>
                <mxCell id="oweyubdisiPaoaLMB55q-94" value="&amp;lt;&amp;lt;Value object&amp;gt;&amp;gt;&lt;div&gt;Application ID&lt;/div&gt;" style="swimlane;fontStyle=1;align=center;verticalAlign=top;childLayout=stackLayout;horizontal=1;startSize=40;horizontalStack=0;resizeParent=1;resizeParentMax=0;resizeLast=0;collapsible=1;marginBottom=0;whiteSpace=wrap;html=1;" parent="1" vertex="1">
                    <mxGeometry x="1740" y="56" width="180" height="104" as="geometry"/>
                </mxCell>
                <mxCell id="oweyubdisiPaoaLMB55q-95" value="- Application ID:string&lt;div&gt;&lt;br&gt;&lt;/div&gt;" style="text;strokeColor=none;fillColor=none;align=left;verticalAlign=top;spacingLeft=4;spacingRight=4;overflow=hidden;rotatable=0;points=[[0,0.5],[1,0.5]];portConstraint=eastwest;whiteSpace=wrap;html=1;" parent="oweyubdisiPaoaLMB55q-94" vertex="1">
                    <mxGeometry y="40" width="180" height="30" as="geometry"/>
                </mxCell>
                <mxCell id="oweyubdisiPaoaLMB55q-96" value="" style="line;strokeWidth=1;fillColor=none;align=left;verticalAlign=middle;spacingTop=-1;spacingLeft=3;spacingRight=3;rotatable=0;labelPosition=right;points=[];portConstraint=eastwest;strokeColor=inherit;" parent="oweyubdisiPaoaLMB55q-94" vertex="1">
                    <mxGeometry y="70" width="180" height="8" as="geometry"/>
                </mxCell>
                <mxCell id="oweyubdisiPaoaLMB55q-97" value="+ method(type): type" style="text;strokeColor=none;fillColor=none;align=left;verticalAlign=top;spacingLeft=4;spacingRight=4;overflow=hidden;rotatable=0;points=[[0,0.5],[1,0.5]];portConstraint=eastwest;whiteSpace=wrap;html=1;" parent="oweyubdisiPaoaLMB55q-94" vertex="1">
                    <mxGeometry y="78" width="180" height="26" as="geometry"/>
                </mxCell>
                <mxCell id="oweyubdisiPaoaLMB55q-99" style="edgeStyle=orthogonalEdgeStyle;rounded=0;orthogonalLoop=1;jettySize=auto;html=1;entryX=0.681;entryY=1.048;entryDx=0;entryDy=0;exitX=0;exitY=0.25;exitDx=0;exitDy=0;startArrow=diamond;startFill=0;endArrow=ERone;endFill=0;entryPerimeter=0;" parent="1" source="oweyubdisiPaoaLMB55q-26" target="oweyubdisiPaoaLMB55q-97" edge="1">
                    <mxGeometry relative="1" as="geometry">
                        <Array as="points">
                            <mxPoint x="2090" y="348"/>
                            <mxPoint x="2090" y="328"/>
                            <mxPoint x="1940" y="328"/>
                            <mxPoint x="1940" y="210"/>
                            <mxPoint x="1860" y="210"/>
                            <mxPoint x="1860" y="161"/>
                        </Array>
                    </mxGeometry>
                </mxCell>
                <mxCell id="oweyubdisiPaoaLMB55q-100" style="edgeStyle=orthogonalEdgeStyle;rounded=0;orthogonalLoop=1;jettySize=auto;html=1;entryX=0.806;entryY=1.058;entryDx=0;entryDy=0;entryPerimeter=0;exitX=0.005;exitY=0.133;exitDx=0;exitDy=0;startArrow=diamond;startFill=0;endArrow=ERone;endFill=0;exitPerimeter=0;" parent="1" source="oweyubdisiPaoaLMB55q-30" target="oweyubdisiPaoaLMB55q-25" edge="1">
                    <mxGeometry relative="1" as="geometry">
                        <Array as="points">
                            <mxPoint x="2091" y="547"/>
                            <mxPoint x="1940" y="547"/>
                            <mxPoint x="1940" y="470"/>
                            <mxPoint x="1885" y="470"/>
                        </Array>
                    </mxGeometry>
                </mxCell>
                <mxCell id="oweyubdisiPaoaLMB55q-101" style="edgeStyle=orthogonalEdgeStyle;rounded=0;orthogonalLoop=1;jettySize=auto;html=1;entryX=1;entryY=0.5;entryDx=0;entryDy=0;startArrow=diamond;startFill=0;endArrow=ERone;endFill=0;" parent="1" source="oweyubdisiPaoaLMB55q-31" target="oweyubdisiPaoaLMB55q-97" edge="1">
                    <mxGeometry relative="1" as="geometry"/>
                </mxCell>
                <mxCell id="oweyubdisiPaoaLMB55q-102" style="edgeStyle=orthogonalEdgeStyle;rounded=0;orthogonalLoop=1;jettySize=auto;html=1;entryX=0.868;entryY=1;entryDx=0;entryDy=0;entryPerimeter=0;exitX=0.005;exitY=0.111;exitDx=0;exitDy=0;exitPerimeter=0;startArrow=diamond;startFill=0;endArrow=ERone;endFill=0;" parent="1" source="oweyubdisiPaoaLMB55q-40" target="oweyubdisiPaoaLMB55q-37" edge="1">
                    <mxGeometry relative="1" as="geometry">
                        <Array as="points">
                            <mxPoint x="2091" y="808"/>
                            <mxPoint x="1970" y="808"/>
                            <mxPoint x="1970" y="680"/>
                            <mxPoint x="1906" y="680"/>
                        </Array>
                    </mxGeometry>
                </mxCell>
                <mxCell id="oweyubdisiPaoaLMB55q-104" value="&amp;lt;&amp;lt;Value object&amp;gt;&amp;gt;&lt;div&gt;Role ID&lt;/div&gt;" style="swimlane;fontStyle=1;align=center;verticalAlign=top;childLayout=stackLayout;horizontal=1;startSize=40;horizontalStack=0;resizeParent=1;resizeParentMax=0;resizeLast=0;collapsible=1;marginBottom=0;whiteSpace=wrap;html=1;" parent="1" vertex="1">
                    <mxGeometry x="1050" y="40" width="180" height="104" as="geometry"/>
                </mxCell>
                <mxCell id="oweyubdisiPaoaLMB55q-105" value="- Role ID:string&lt;div&gt;&lt;br&gt;&lt;/div&gt;" style="text;strokeColor=none;fillColor=none;align=left;verticalAlign=top;spacingLeft=4;spacingRight=4;overflow=hidden;rotatable=0;points=[[0,0.5],[1,0.5]];portConstraint=eastwest;whiteSpace=wrap;html=1;" parent="oweyubdisiPaoaLMB55q-104" vertex="1">
                    <mxGeometry y="40" width="180" height="30" as="geometry"/>
                </mxCell>
                <mxCell id="oweyubdisiPaoaLMB55q-106" value="" style="line;strokeWidth=1;fillColor=none;align=left;verticalAlign=middle;spacingTop=-1;spacingLeft=3;spacingRight=3;rotatable=0;labelPosition=right;points=[];portConstraint=eastwest;strokeColor=inherit;" parent="oweyubdisiPaoaLMB55q-104" vertex="1">
                    <mxGeometry y="70" width="180" height="8" as="geometry"/>
                </mxCell>
                <mxCell id="oweyubdisiPaoaLMB55q-107" value="+ method(type): type" style="text;strokeColor=none;fillColor=none;align=left;verticalAlign=top;spacingLeft=4;spacingRight=4;overflow=hidden;rotatable=0;points=[[0,0.5],[1,0.5]];portConstraint=eastwest;whiteSpace=wrap;html=1;" parent="oweyubdisiPaoaLMB55q-104" vertex="1">
                    <mxGeometry y="78" width="180" height="26" as="geometry"/>
                </mxCell>
                <mxCell id="oweyubdisiPaoaLMB55q-109" style="edgeStyle=orthogonalEdgeStyle;rounded=0;orthogonalLoop=1;jettySize=auto;html=1;entryX=0.466;entryY=-0.008;entryDx=0;entryDy=0;entryPerimeter=0;startArrow=diamond;startFill=1;endArrow=ERoneToMany;endFill=0;" parent="1" source="oweyubdisiPaoaLMB55q-54" target="oweyubdisiPaoaLMB55q-62" edge="1">
                    <mxGeometry relative="1" as="geometry"/>
                </mxCell>
                <mxCell id="oweyubdisiPaoaLMB55q-110" style="edgeStyle=orthogonalEdgeStyle;rounded=0;orthogonalLoop=1;jettySize=auto;html=1;entryX=0.778;entryY=1.075;entryDx=0;entryDy=0;entryPerimeter=0;exitX=-0.019;exitY=0.119;exitDx=0;exitDy=0;exitPerimeter=0;startArrow=diamond;startFill=0;endArrow=ERone;endFill=0;" parent="1" source="oweyubdisiPaoaLMB55q-63" target="oweyubdisiPaoaLMB55q-107" edge="1">
                    <mxGeometry relative="1" as="geometry">
                        <Array as="points">
                            <mxPoint x="1456" y="418"/>
                            <mxPoint x="1220" y="418"/>
                            <mxPoint x="1220" y="170"/>
                            <mxPoint x="1190" y="170"/>
                        </Array>
                    </mxGeometry>
                </mxCell>
                <mxCell id="oweyubdisiPaoaLMB55q-112" style="edgeStyle=orthogonalEdgeStyle;rounded=0;orthogonalLoop=1;jettySize=auto;html=1;entryX=0.65;entryY=0.003;entryDx=0;entryDy=0;entryPerimeter=0;startArrow=diamond;startFill=1;endArrow=ERoneToMany;endFill=0;exitX=0.611;exitY=1.093;exitDx=0;exitDy=0;exitPerimeter=0;" parent="1" source="oweyubdisiPaoaLMB55q-65" target="oweyubdisiPaoaLMB55q-66" edge="1">
                    <mxGeometry relative="1" as="geometry">
                        <Array as="points">
                            <mxPoint x="1601" y="580"/>
                        </Array>
                    </mxGeometry>
                </mxCell>
                <mxCell id="oweyubdisiPaoaLMB55q-114" style="edgeStyle=orthogonalEdgeStyle;rounded=0;orthogonalLoop=1;jettySize=auto;html=1;entryX=0.546;entryY=1.049;entryDx=0;entryDy=0;entryPerimeter=0;exitX=-0.008;exitY=0.243;exitDx=0;exitDy=0;exitPerimeter=0;startArrow=diamond;startFill=0;endArrow=ERone;endFill=0;" parent="1" source="oweyubdisiPaoaLMB55q-67" target="oweyubdisiPaoaLMB55q-61" edge="1">
                    <mxGeometry relative="1" as="geometry">
                        <Array as="points">
                            <mxPoint x="1370" y="699"/>
                            <mxPoint x="1370" y="600"/>
                            <mxPoint x="1248" y="600"/>
                        </Array>
                    </mxGeometry>
                </mxCell>
                <mxCell id="oweyubdisiPaoaLMB55q-115" style="edgeStyle=orthogonalEdgeStyle;rounded=0;orthogonalLoop=1;jettySize=auto;html=1;entryX=0.677;entryY=1.112;entryDx=0;entryDy=0;entryPerimeter=0;startArrow=diamond;startFill=0;endArrow=ERone;endFill=0;" parent="1" target="oweyubdisiPaoaLMB55q-107" edge="1">
                    <mxGeometry relative="1" as="geometry">
                        <Array as="points">
                            <mxPoint x="1360" y="650"/>
                            <mxPoint x="1360" y="380"/>
                            <mxPoint x="1172" y="380"/>
                        </Array>
                        <mxPoint x="1449" y="650" as="sourcePoint"/>
                    </mxGeometry>
                </mxCell>
                <mxCell id="oweyubdisiPaoaLMB55q-116" style="edgeStyle=orthogonalEdgeStyle;rounded=0;orthogonalLoop=1;jettySize=auto;html=1;entryX=0.902;entryY=0.965;entryDx=0;entryDy=0;entryPerimeter=0;startArrow=diamond;startFill=0;endArrow=ERone;endFill=0;" parent="1" target="oweyubdisiPaoaLMB55q-73" edge="1">
                    <mxGeometry relative="1" as="geometry">
                        <Array as="points">
                            <mxPoint x="1330" y="900"/>
                            <mxPoint x="1330" y="793"/>
                        </Array>
                        <mxPoint x="1450" y="900" as="sourcePoint"/>
                    </mxGeometry>
                </mxCell>
                <mxCell id="oweyubdisiPaoaLMB55q-117" style="edgeStyle=orthogonalEdgeStyle;rounded=0;orthogonalLoop=1;jettySize=auto;html=1;entryX=0;entryY=0.5;entryDx=0;entryDy=0;exitX=0.75;exitY=0;exitDx=0;exitDy=0;startArrow=diamond;startFill=0;endArrow=ERone;endFill=0;" parent="1" source="oweyubdisiPaoaLMB55q-62" target="cLbF2slpCYDmgKNz8u4w-87" edge="1">
                    <mxGeometry relative="1" as="geometry">
                        <Array as="points">
                            <mxPoint x="1633" y="370"/>
                            <mxPoint x="1630" y="370"/>
                            <mxPoint x="1630" y="270"/>
                            <mxPoint x="2343" y="270"/>
                            <mxPoint x="2343" y="250"/>
                            <mxPoint x="2420" y="250"/>
                        </Array>
                    </mxGeometry>
                </mxCell>
                <mxCell id="oweyubdisiPaoaLMB55q-118" style="edgeStyle=orthogonalEdgeStyle;rounded=0;orthogonalLoop=1;jettySize=auto;html=1;exitX=1;exitY=0.5;exitDx=0;exitDy=0;entryX=-0.005;entryY=0.258;entryDx=0;entryDy=0;entryPerimeter=0;startArrow=diamond;startFill=0;endArrow=ERone;endFill=0;" parent="1" edge="1">
                    <mxGeometry relative="1" as="geometry">
                        <mxPoint x="2409.1" y="521.7080000000001" as="targetPoint"/>
                        <Array as="points">
                            <mxPoint x="1700" y="720"/>
                            <mxPoint x="1700" y="701"/>
                            <mxPoint x="2380" y="701"/>
                            <mxPoint x="2380" y="522"/>
                        </Array>
                        <mxPoint x="1680" y="721" as="sourcePoint"/>
                    </mxGeometry>
                </mxCell>
                <mxCell id="oweyubdisiPaoaLMB55q-119" style="edgeStyle=orthogonalEdgeStyle;rounded=0;orthogonalLoop=1;jettySize=auto;html=1;entryX=0;entryY=0.5;entryDx=0;entryDy=0;startArrow=diamond;startFill=0;endArrow=ERoneToMany;endFill=0;" parent="1" source="oweyubdisiPaoaLMB55q-75" target="cLbF2slpCYDmgKNz8u4w-115" edge="1">
                    <mxGeometry relative="1" as="geometry">
                        <Array as="points">
                            <mxPoint x="2360" y="960"/>
                            <mxPoint x="2360" y="801"/>
                            <mxPoint x="2440" y="801"/>
                        </Array>
                    </mxGeometry>
                </mxCell>
                <mxCell id="oweyubdisiPaoaLMB55q-120" style="edgeStyle=orthogonalEdgeStyle;rounded=0;orthogonalLoop=1;jettySize=auto;html=1;entryX=0.646;entryY=0.042;entryDx=0;entryDy=0;entryPerimeter=0;startArrow=diamond;startFill=0;endArrow=ERone;endFill=0;" parent="1" source="oweyubdisiPaoaLMB55q-55" target="cLbF2slpCYDmgKNz8u4w-36" edge="1">
                    <mxGeometry relative="1" as="geometry">
                        <Array as="points">
                            <mxPoint x="1066" y="180"/>
                        </Array>
                    </mxGeometry>
                </mxCell>
                <mxCell id="oweyubdisiPaoaLMB55q-121" style="edgeStyle=orthogonalEdgeStyle;rounded=0;orthogonalLoop=1;jettySize=auto;html=1;entryX=0.513;entryY=1.112;entryDx=0;entryDy=0;entryPerimeter=0;startArrow=diamond;startFill=0;endArrow=ERmany;endFill=0;exitX=0.991;exitY=0.8;exitDx=0;exitDy=0;exitPerimeter=0;" parent="1" source="cLbF2slpCYDmgKNz8u4w-17" target="oweyubdisiPaoaLMB55q-107" edge="1">
                    <mxGeometry relative="1" as="geometry">
                        <Array as="points">
                            <mxPoint x="870" y="506"/>
                            <mxPoint x="870" y="410"/>
                            <mxPoint x="1142" y="410"/>
                        </Array>
                    </mxGeometry>
                </mxCell>
                <mxCell id="oweyubdisiPaoaLMB55q-122" style="edgeStyle=orthogonalEdgeStyle;rounded=0;orthogonalLoop=1;jettySize=auto;html=1;entryX=-0.005;entryY=0.159;entryDx=0;entryDy=0;entryPerimeter=0;startArrow=diamond;startFill=0;endArrow=ERmany;endFill=0;exitX=1.008;exitY=0.811;exitDx=0;exitDy=0;exitPerimeter=0;" parent="1" source="cLbF2slpCYDmgKNz8u4w-43" edge="1">
                    <mxGeometry relative="1" as="geometry">
                        <mxPoint x="810" y="880" as="sourcePoint"/>
                        <mxPoint x="1049.1" y="127.13400000000001" as="targetPoint"/>
                        <Array as="points">
                            <mxPoint x="810" y="873"/>
                            <mxPoint x="810" y="880"/>
                            <mxPoint x="880" y="880"/>
                            <mxPoint x="880" y="255"/>
                            <mxPoint x="980" y="255"/>
                            <mxPoint x="980" y="127"/>
                        </Array>
                    </mxGeometry>
                </mxCell>
                <mxCell id="rlwxEXt-skPTTyKTojZR-12" style="edgeStyle=orthogonalEdgeStyle;rounded=0;orthogonalLoop=1;jettySize=auto;html=1;entryX=0;entryY=0.5;entryDx=0;entryDy=0;startArrow=diamond;startFill=0;endArrow=ERone;endFill=0;" parent="1" source="rlwxEXt-skPTTyKTojZR-3" target="cLbF2slpCYDmgKNz8u4w-39" edge="1">
                    <mxGeometry relative="1" as="geometry">
                        <Array as="points">
                            <mxPoint x="910" y="365"/>
                        </Array>
                    </mxGeometry>
                </mxCell>
                <mxCell id="rlwxEXt-skPTTyKTojZR-3" value="&amp;lt;&amp;lt;Aggregate&amp;gt;&amp;gt;&lt;div&gt;License&lt;/div&gt;" style="swimlane;fontStyle=1;align=center;verticalAlign=top;childLayout=stackLayout;horizontal=1;startSize=40;horizontalStack=0;resizeParent=1;resizeParentMax=0;resizeLast=0;collapsible=1;marginBottom=0;whiteSpace=wrap;html=1;" parent="1" vertex="1">
                    <mxGeometry x="900" y="606" width="230" height="164" as="geometry"/>
                </mxCell>
                <mxCell id="rlwxEXt-skPTTyKTojZR-4" value="- License ID:value object&lt;div&gt;&lt;span style=&quot;background-color: initial;&quot;&gt;- Organization ID:valie object&lt;/span&gt;&lt;/div&gt;&lt;div&gt;&lt;span style=&quot;background-color: initial;&quot;&gt;- Application ID:value object&lt;/span&gt;&lt;/div&gt;&lt;div&gt;&lt;span style=&quot;background-color: initial;&quot;&gt;- Issue date:value date&lt;/span&gt;&lt;/div&gt;&lt;div&gt;&lt;span style=&quot;background-color: initial;&quot;&gt;- Expiration date:date&lt;/span&gt;&lt;br&gt;&lt;/div&gt;&lt;div&gt;&lt;span style=&quot;background-color: initial;&quot;&gt;- Total number of license:int&lt;/span&gt;&lt;/div&gt;" style="text;strokeColor=none;fillColor=none;align=left;verticalAlign=top;spacingLeft=4;spacingRight=4;overflow=hidden;rotatable=0;points=[[0,0.5],[1,0.5]];portConstraint=eastwest;whiteSpace=wrap;html=1;" parent="rlwxEXt-skPTTyKTojZR-3" vertex="1">
                    <mxGeometry y="40" width="230" height="90" as="geometry"/>
                </mxCell>
                <mxCell id="rlwxEXt-skPTTyKTojZR-5" value="" style="line;strokeWidth=1;fillColor=none;align=left;verticalAlign=middle;spacingTop=-1;spacingLeft=3;spacingRight=3;rotatable=0;labelPosition=right;points=[];portConstraint=eastwest;strokeColor=inherit;" parent="rlwxEXt-skPTTyKTojZR-3" vertex="1">
                    <mxGeometry y="130" width="230" height="8" as="geometry"/>
                </mxCell>
                <mxCell id="rlwxEXt-skPTTyKTojZR-6" value="+ method(type): type" style="text;strokeColor=none;fillColor=none;align=left;verticalAlign=top;spacingLeft=4;spacingRight=4;overflow=hidden;rotatable=0;points=[[0,0.5],[1,0.5]];portConstraint=eastwest;whiteSpace=wrap;html=1;" parent="rlwxEXt-skPTTyKTojZR-3" vertex="1">
                    <mxGeometry y="138" width="230" height="26" as="geometry"/>
                </mxCell>
                <mxCell id="rlwxEXt-skPTTyKTojZR-7" value="&amp;lt;&amp;lt;Value object&amp;gt;&amp;gt;&lt;div&gt;License ID&lt;/div&gt;" style="swimlane;fontStyle=1;align=center;verticalAlign=top;childLayout=stackLayout;horizontal=1;startSize=40;horizontalStack=0;resizeParent=1;resizeParentMax=0;resizeLast=0;collapsible=1;marginBottom=0;whiteSpace=wrap;html=1;" parent="1" vertex="1">
                    <mxGeometry x="930" y="456" width="180" height="104" as="geometry"/>
                </mxCell>
                <mxCell id="rlwxEXt-skPTTyKTojZR-8" value="- License ID:string&lt;div&gt;&lt;br&gt;&lt;/div&gt;" style="text;strokeColor=none;fillColor=none;align=left;verticalAlign=top;spacingLeft=4;spacingRight=4;overflow=hidden;rotatable=0;points=[[0,0.5],[1,0.5]];portConstraint=eastwest;whiteSpace=wrap;html=1;" parent="rlwxEXt-skPTTyKTojZR-7" vertex="1">
                    <mxGeometry y="40" width="180" height="30" as="geometry"/>
                </mxCell>
                <mxCell id="rlwxEXt-skPTTyKTojZR-9" value="" style="line;strokeWidth=1;fillColor=none;align=left;verticalAlign=middle;spacingTop=-1;spacingLeft=3;spacingRight=3;rotatable=0;labelPosition=right;points=[];portConstraint=eastwest;strokeColor=inherit;" parent="rlwxEXt-skPTTyKTojZR-7" vertex="1">
                    <mxGeometry y="70" width="180" height="8" as="geometry"/>
                </mxCell>
                <mxCell id="rlwxEXt-skPTTyKTojZR-10" value="+ method(type): type" style="text;strokeColor=none;fillColor=none;align=left;verticalAlign=top;spacingLeft=4;spacingRight=4;overflow=hidden;rotatable=0;points=[[0,0.5],[1,0.5]];portConstraint=eastwest;whiteSpace=wrap;html=1;" parent="rlwxEXt-skPTTyKTojZR-7" vertex="1">
                    <mxGeometry y="78" width="180" height="26" as="geometry"/>
                </mxCell>
                <mxCell id="rlwxEXt-skPTTyKTojZR-11" style="edgeStyle=orthogonalEdgeStyle;rounded=0;orthogonalLoop=1;jettySize=auto;html=1;entryX=0.697;entryY=1.049;entryDx=0;entryDy=0;entryPerimeter=0;startArrow=diamond;startFill=1;endArrow=ERone;endFill=0;exitX=0.632;exitY=-0.003;exitDx=0;exitDy=0;exitPerimeter=0;" parent="1" source="rlwxEXt-skPTTyKTojZR-3" target="rlwxEXt-skPTTyKTojZR-10" edge="1">
                    <mxGeometry relative="1" as="geometry">
                        <Array as="points">
                            <mxPoint x="1045" y="583"/>
                            <mxPoint x="1055" y="583"/>
                        </Array>
                    </mxGeometry>
                </mxCell>
                <mxCell id="rlwxEXt-skPTTyKTojZR-13" style="edgeStyle=orthogonalEdgeStyle;rounded=0;orthogonalLoop=1;jettySize=auto;html=1;entryX=0;entryY=0.5;entryDx=0;entryDy=0;exitX=1.005;exitY=0.233;exitDx=0;exitDy=0;exitPerimeter=0;startArrow=diamond;startFill=0;endArrow=ERone;endFill=0;" parent="1" source="rlwxEXt-skPTTyKTojZR-4" target="oweyubdisiPaoaLMB55q-95" edge="1">
                    <mxGeometry relative="1" as="geometry">
                        <Array as="points">
                            <mxPoint x="1210" y="667"/>
                            <mxPoint x="1210" y="590"/>
                            <mxPoint x="1710" y="590"/>
                            <mxPoint x="1710" y="111"/>
                        </Array>
                    </mxGeometry>
                </mxCell>
                <mxCell id="rlwxEXt-skPTTyKTojZR-16" style="edgeStyle=orthogonalEdgeStyle;rounded=0;orthogonalLoop=1;jettySize=auto;html=1;entryX=0;entryY=0.5;entryDx=0;entryDy=0;startArrow=diamond;startFill=0;endArrow=ERmany;endFill=0;" parent="1" source="cLbF2slpCYDmgKNz8u4w-43" target="rlwxEXt-skPTTyKTojZR-10" edge="1">
                    <mxGeometry relative="1" as="geometry"/>
                </mxCell>
                <mxCell id="SmEggsBRFmKiBiRXJJUy-30" style="edgeStyle=orthogonalEdgeStyle;rounded=0;orthogonalLoop=1;jettySize=auto;html=1;entryX=0;entryY=0.25;entryDx=0;entryDy=0;exitX=0.999;exitY=0.892;exitDx=0;exitDy=0;exitPerimeter=0;startArrow=diamond;startFill=0;endArrow=ERone;endFill=0;" parent="1" source="LZRiOb_BstFV7OTACxnQ-6" target="SmEggsBRFmKiBiRXJJUy-19" edge="1">
                    <mxGeometry relative="1" as="geometry"/>
                </mxCell>
                <mxCell id="LZRiOb_BstFV7OTACxnQ-5" value="&amp;lt;&amp;lt;Value Object&amp;gt;&amp;gt;&lt;div&gt;Address&lt;/div&gt;" style="swimlane;fontStyle=1;align=center;verticalAlign=top;childLayout=stackLayout;horizontal=1;startSize=40;horizontalStack=0;resizeParent=1;resizeParentMax=0;resizeLast=0;collapsible=1;marginBottom=0;whiteSpace=wrap;html=1;" parent="1" vertex="1">
                    <mxGeometry x="-190" y="720" width="230" height="110" as="geometry"/>
                </mxCell>
                <mxCell id="LZRiOb_BstFV7OTACxnQ-6" value="&lt;div&gt;- countryID: value object&lt;/div&gt;- stateID:value object" style="text;strokeColor=none;fillColor=none;align=left;verticalAlign=top;spacingLeft=4;spacingRight=4;overflow=hidden;rotatable=0;points=[[0,0.5],[1,0.5]];portConstraint=eastwest;whiteSpace=wrap;html=1;" parent="LZRiOb_BstFV7OTACxnQ-5" vertex="1">
                    <mxGeometry y="40" width="230" height="40" as="geometry"/>
                </mxCell>
                <mxCell id="LZRiOb_BstFV7OTACxnQ-7" value="" style="line;strokeWidth=1;fillColor=none;align=left;verticalAlign=middle;spacingTop=-1;spacingLeft=3;spacingRight=3;rotatable=0;labelPosition=right;points=[];portConstraint=eastwest;strokeColor=inherit;" parent="LZRiOb_BstFV7OTACxnQ-5" vertex="1">
                    <mxGeometry y="80" width="230" height="8" as="geometry"/>
                </mxCell>
                <mxCell id="LZRiOb_BstFV7OTACxnQ-8" value="&lt;div&gt;&lt;br&gt;&lt;/div&gt;" style="text;strokeColor=none;fillColor=none;align=left;verticalAlign=top;spacingLeft=4;spacingRight=4;overflow=hidden;rotatable=0;points=[[0,0.5],[1,0.5]];portConstraint=eastwest;whiteSpace=wrap;html=1;" parent="LZRiOb_BstFV7OTACxnQ-5" vertex="1">
                    <mxGeometry y="88" width="230" height="22" as="geometry"/>
                </mxCell>
                <mxCell id="IiC-hAanUXLyAjGfhQ_G-2" value="&amp;lt;&amp;lt;Value object&amp;gt;&amp;gt;&lt;div&gt;Gender&lt;/div&gt;" style="swimlane;fontStyle=1;align=center;verticalAlign=top;childLayout=stackLayout;horizontal=1;startSize=40;horizontalStack=0;resizeParent=1;resizeParentMax=0;resizeLast=0;collapsible=1;marginBottom=0;whiteSpace=wrap;html=1;" parent="1" vertex="1">
                    <mxGeometry x="-200" y="380" width="190" height="104" as="geometry"/>
                </mxCell>
                <mxCell id="IiC-hAanUXLyAjGfhQ_G-3" value="- value:string" style="text;strokeColor=none;fillColor=none;align=left;verticalAlign=top;spacingLeft=4;spacingRight=4;overflow=hidden;rotatable=0;points=[[0,0.5],[1,0.5]];portConstraint=eastwest;whiteSpace=wrap;html=1;" parent="IiC-hAanUXLyAjGfhQ_G-2" vertex="1">
                    <mxGeometry y="40" width="190" height="30" as="geometry"/>
                </mxCell>
                <mxCell id="IiC-hAanUXLyAjGfhQ_G-4" value="" style="line;strokeWidth=1;fillColor=none;align=left;verticalAlign=middle;spacingTop=-1;spacingLeft=3;spacingRight=3;rotatable=0;labelPosition=right;points=[];portConstraint=eastwest;strokeColor=inherit;" parent="IiC-hAanUXLyAjGfhQ_G-2" vertex="1">
                    <mxGeometry y="70" width="190" height="8" as="geometry"/>
                </mxCell>
                <mxCell id="IiC-hAanUXLyAjGfhQ_G-5" value="+ method(type): type" style="text;strokeColor=none;fillColor=none;align=left;verticalAlign=top;spacingLeft=4;spacingRight=4;overflow=hidden;rotatable=0;points=[[0,0.5],[1,0.5]];portConstraint=eastwest;whiteSpace=wrap;html=1;" parent="IiC-hAanUXLyAjGfhQ_G-2" vertex="1">
                    <mxGeometry y="78" width="190" height="26" as="geometry"/>
                </mxCell>
                <mxCell id="IiC-hAanUXLyAjGfhQ_G-7" value="&amp;lt;&amp;lt;Value Object&amp;gt;&amp;gt;&lt;div&gt;fullName&lt;/div&gt;" style="swimlane;fontStyle=1;align=center;verticalAlign=top;childLayout=stackLayout;horizontal=1;startSize=40;horizontalStack=0;resizeParent=1;resizeParentMax=0;resizeLast=0;collapsible=1;marginBottom=0;whiteSpace=wrap;html=1;" parent="1" vertex="1">
                    <mxGeometry x="-240" y="550" width="230" height="124" as="geometry">
                        <mxRectangle x="30" y="611" width="190" height="40" as="alternateBounds"/>
                    </mxGeometry>
                </mxCell>
                <mxCell id="IiC-hAanUXLyAjGfhQ_G-8" value="- firstName:string&lt;div&gt;- lastName:string&lt;/div&gt;" style="text;strokeColor=none;fillColor=none;align=left;verticalAlign=top;spacingLeft=4;spacingRight=4;overflow=hidden;rotatable=0;points=[[0,0.5],[1,0.5]];portConstraint=eastwest;whiteSpace=wrap;html=1;" parent="IiC-hAanUXLyAjGfhQ_G-7" vertex="1">
                    <mxGeometry y="40" width="230" height="50" as="geometry"/>
                </mxCell>
                <mxCell id="IiC-hAanUXLyAjGfhQ_G-9" value="" style="line;strokeWidth=1;fillColor=none;align=left;verticalAlign=middle;spacingTop=-1;spacingLeft=3;spacingRight=3;rotatable=0;labelPosition=right;points=[];portConstraint=eastwest;strokeColor=inherit;" parent="IiC-hAanUXLyAjGfhQ_G-7" vertex="1">
                    <mxGeometry y="90" width="230" height="8" as="geometry"/>
                </mxCell>
                <mxCell id="IiC-hAanUXLyAjGfhQ_G-10" value="+ method(type): type" style="text;strokeColor=none;fillColor=none;align=left;verticalAlign=top;spacingLeft=4;spacingRight=4;overflow=hidden;rotatable=0;points=[[0,0.5],[1,0.5]];portConstraint=eastwest;whiteSpace=wrap;html=1;" parent="IiC-hAanUXLyAjGfhQ_G-7" vertex="1">
                    <mxGeometry y="98" width="230" height="26" as="geometry"/>
                </mxCell>
                <mxCell id="IiC-hAanUXLyAjGfhQ_G-12" style="edgeStyle=orthogonalEdgeStyle;rounded=0;orthogonalLoop=1;jettySize=auto;html=1;entryX=0.996;entryY=0.08;entryDx=0;entryDy=0;entryPerimeter=0;exitX=-0.026;exitY=0.763;exitDx=0;exitDy=0;exitPerimeter=0;startArrow=diamond;startFill=1;endArrow=ERone;endFill=0;" parent="1" source="cLbF2slpCYDmgKNz8u4w-6" target="IiC-hAanUXLyAjGfhQ_G-8" edge="1">
                    <mxGeometry relative="1" as="geometry"/>
                </mxCell>
                <mxCell id="IiC-hAanUXLyAjGfhQ_G-18" value="&amp;lt;&amp;lt;Value Object&amp;gt;&amp;gt;&lt;div&gt;WorkPhoneNumber&lt;/div&gt;" style="swimlane;fontStyle=1;align=center;verticalAlign=top;childLayout=stackLayout;horizontal=1;startSize=40;horizontalStack=0;resizeParent=1;resizeParentMax=0;resizeLast=0;collapsible=1;marginBottom=0;whiteSpace=wrap;html=1;" parent="1" vertex="1">
                    <mxGeometry x="150" y="750" width="230" height="144" as="geometry">
                        <mxRectangle x="30" y="611" width="190" height="40" as="alternateBounds"/>
                    </mxGeometry>
                </mxCell>
                <mxCell id="IiC-hAanUXLyAjGfhQ_G-19" value="- telecomSpecID:value object&lt;div&gt;- value:string&lt;/div&gt;&lt;div&gt;- status:string&lt;/div&gt;&lt;div&gt;- verificationCode:value object&lt;/div&gt;" style="text;strokeColor=none;fillColor=none;align=left;verticalAlign=top;spacingLeft=4;spacingRight=4;overflow=hidden;rotatable=0;points=[[0,0.5],[1,0.5]];portConstraint=eastwest;whiteSpace=wrap;html=1;" parent="IiC-hAanUXLyAjGfhQ_G-18" vertex="1">
                    <mxGeometry y="40" width="230" height="70" as="geometry"/>
                </mxCell>
                <mxCell id="IiC-hAanUXLyAjGfhQ_G-20" value="" style="line;strokeWidth=1;fillColor=none;align=left;verticalAlign=middle;spacingTop=-1;spacingLeft=3;spacingRight=3;rotatable=0;labelPosition=right;points=[];portConstraint=eastwest;strokeColor=inherit;" parent="IiC-hAanUXLyAjGfhQ_G-18" vertex="1">
                    <mxGeometry y="110" width="230" height="8" as="geometry"/>
                </mxCell>
                <mxCell id="IiC-hAanUXLyAjGfhQ_G-21" value="+ method(type): type" style="text;strokeColor=none;fillColor=none;align=left;verticalAlign=top;spacingLeft=4;spacingRight=4;overflow=hidden;rotatable=0;points=[[0,0.5],[1,0.5]];portConstraint=eastwest;whiteSpace=wrap;html=1;" parent="IiC-hAanUXLyAjGfhQ_G-18" vertex="1">
                    <mxGeometry y="118" width="230" height="26" as="geometry"/>
                </mxCell>
                <mxCell id="IiC-hAanUXLyAjGfhQ_G-22" value="&amp;lt;&amp;lt;Value Object&amp;gt;&amp;gt;&lt;div&gt;WorkEmailAddress&lt;/div&gt;" style="swimlane;fontStyle=1;align=center;verticalAlign=top;childLayout=stackLayout;horizontal=1;startSize=40;horizontalStack=0;resizeParent=1;resizeParentMax=0;resizeLast=0;collapsible=1;marginBottom=0;whiteSpace=wrap;html=1;" parent="1" vertex="1">
                    <mxGeometry x="-170" y="188" width="230" height="134" as="geometry">
                        <mxRectangle x="30" y="611" width="190" height="40" as="alternateBounds"/>
                    </mxGeometry>
                </mxCell>
                <mxCell id="IiC-hAanUXLyAjGfhQ_G-23" value="- value:string&lt;div&gt;- status:string&lt;/div&gt;&lt;div&gt;- verificationCode:value object&lt;/div&gt;" style="text;strokeColor=none;fillColor=none;align=left;verticalAlign=top;spacingLeft=4;spacingRight=4;overflow=hidden;rotatable=0;points=[[0,0.5],[1,0.5]];portConstraint=eastwest;whiteSpace=wrap;html=1;" parent="IiC-hAanUXLyAjGfhQ_G-22" vertex="1">
                    <mxGeometry y="40" width="230" height="60" as="geometry"/>
                </mxCell>
                <mxCell id="IiC-hAanUXLyAjGfhQ_G-24" value="" style="line;strokeWidth=1;fillColor=none;align=left;verticalAlign=middle;spacingTop=-1;spacingLeft=3;spacingRight=3;rotatable=0;labelPosition=right;points=[];portConstraint=eastwest;strokeColor=inherit;" parent="IiC-hAanUXLyAjGfhQ_G-22" vertex="1">
                    <mxGeometry y="100" width="230" height="8" as="geometry"/>
                </mxCell>
                <mxCell id="IiC-hAanUXLyAjGfhQ_G-25" value="+ method(type): type" style="text;strokeColor=none;fillColor=none;align=left;verticalAlign=top;spacingLeft=4;spacingRight=4;overflow=hidden;rotatable=0;points=[[0,0.5],[1,0.5]];portConstraint=eastwest;whiteSpace=wrap;html=1;" parent="IiC-hAanUXLyAjGfhQ_G-22" vertex="1">
                    <mxGeometry y="108" width="230" height="26" as="geometry"/>
                </mxCell>
                <mxCell id="IiC-hAanUXLyAjGfhQ_G-27" value="&amp;lt;&amp;lt;Value Object&amp;gt;&amp;gt;&lt;div&gt;Verification Code&lt;/div&gt;" style="swimlane;fontStyle=1;align=center;verticalAlign=top;childLayout=stackLayout;horizontal=1;startSize=40;horizontalStack=0;resizeParent=1;resizeParentMax=0;resizeLast=0;collapsible=1;marginBottom=0;whiteSpace=wrap;html=1;" parent="1" vertex="1">
                    <mxGeometry x="-440" y="740" width="230" height="124" as="geometry">
                        <mxRectangle x="30" y="611" width="190" height="40" as="alternateBounds"/>
                    </mxGeometry>
                </mxCell>
                <mxCell id="IiC-hAanUXLyAjGfhQ_G-28" value="&lt;span style=&quot;background-color: initial;&quot;&gt;- value:string&lt;/span&gt;&lt;div&gt;&lt;span style=&quot;background-color: initial;&quot;&gt;- timestamp date&lt;/span&gt;&lt;/div&gt;" style="text;strokeColor=none;fillColor=none;align=left;verticalAlign=top;spacingLeft=4;spacingRight=4;overflow=hidden;rotatable=0;points=[[0,0.5],[1,0.5]];portConstraint=eastwest;whiteSpace=wrap;html=1;" parent="IiC-hAanUXLyAjGfhQ_G-27" vertex="1">
                    <mxGeometry y="40" width="230" height="50" as="geometry"/>
                </mxCell>
                <mxCell id="IiC-hAanUXLyAjGfhQ_G-29" value="" style="line;strokeWidth=1;fillColor=none;align=left;verticalAlign=middle;spacingTop=-1;spacingLeft=3;spacingRight=3;rotatable=0;labelPosition=right;points=[];portConstraint=eastwest;strokeColor=inherit;" parent="IiC-hAanUXLyAjGfhQ_G-27" vertex="1">
                    <mxGeometry y="90" width="230" height="8" as="geometry"/>
                </mxCell>
                <mxCell id="IiC-hAanUXLyAjGfhQ_G-30" value="+ method(type): type" style="text;strokeColor=none;fillColor=none;align=left;verticalAlign=top;spacingLeft=4;spacingRight=4;overflow=hidden;rotatable=0;points=[[0,0.5],[1,0.5]];portConstraint=eastwest;whiteSpace=wrap;html=1;" parent="IiC-hAanUXLyAjGfhQ_G-27" vertex="1">
                    <mxGeometry y="98" width="230" height="26" as="geometry"/>
                </mxCell>
                <mxCell id="IiC-hAanUXLyAjGfhQ_G-31" style="edgeStyle=orthogonalEdgeStyle;rounded=0;orthogonalLoop=1;jettySize=auto;html=1;entryX=0.704;entryY=1.077;entryDx=0;entryDy=0;entryPerimeter=0;startArrow=diamond;startFill=1;endArrow=ERone;endFill=0;exitX=0;exitY=0.5;exitDx=0;exitDy=0;" parent="1" source="IiC-hAanUXLyAjGfhQ_G-19" target="IiC-hAanUXLyAjGfhQ_G-30" edge="1">
                    <mxGeometry relative="1" as="geometry">
                        <Array as="points">
                            <mxPoint x="60" y="825"/>
                            <mxPoint x="60" y="920"/>
                            <mxPoint x="-280" y="920"/>
                            <mxPoint x="-280" y="880"/>
                            <mxPoint x="-278" y="880"/>
                        </Array>
                    </mxGeometry>
                </mxCell>
                <mxCell id="IiC-hAanUXLyAjGfhQ_G-32" style="edgeStyle=elbowEdgeStyle;rounded=0;orthogonalLoop=1;jettySize=auto;html=1;startArrow=diamond;startFill=1;endArrow=ERone;endFill=0;elbow=vertical;entryX=0.426;entryY=-0.024;entryDx=0;entryDy=0;entryPerimeter=0;" parent="1" source="IiC-hAanUXLyAjGfhQ_G-22" target="IiC-hAanUXLyAjGfhQ_G-27" edge="1">
                    <mxGeometry relative="1" as="geometry">
                        <mxPoint x="-340" y="730" as="targetPoint"/>
                        <Array as="points">
                            <mxPoint x="-310" y="360"/>
                        </Array>
                    </mxGeometry>
                </mxCell>
                <mxCell id="GwFyRBO0t2Lqq0EGOhXc-13" style="edgeStyle=orthogonalEdgeStyle;rounded=0;orthogonalLoop=1;jettySize=auto;html=1;entryX=0;entryY=0.25;entryDx=0;entryDy=0;startArrow=diamond;startFill=1;endArrow=ERone;endFill=0;" parent="1" source="GwFyRBO0t2Lqq0EGOhXc-5" target="GwFyRBO0t2Lqq0EGOhXc-9" edge="1">
                    <mxGeometry relative="1" as="geometry"/>
                </mxCell>
                <mxCell id="GwFyRBO0t2Lqq0EGOhXc-5" value="&amp;lt;&amp;lt;Aggregate&amp;gt;&amp;gt;&lt;div&gt;TelecomSpec&lt;/div&gt;" style="swimlane;fontStyle=1;align=center;verticalAlign=top;childLayout=stackLayout;horizontal=1;startSize=40;horizontalStack=0;resizeParent=1;resizeParentMax=0;resizeLast=0;collapsible=1;marginBottom=0;whiteSpace=wrap;html=1;" parent="1" vertex="1">
                    <mxGeometry x="-420" y="949" width="190" height="154" as="geometry"/>
                </mxCell>
                <mxCell id="GwFyRBO0t2Lqq0EGOhXc-6" value="- telecomSpecID:value Object&lt;div&gt;- countryID: value object&lt;/div&gt;&lt;div&gt;- countryCode:string&lt;/div&gt;&lt;div&gt;- lengthOfNumber:string&lt;/div&gt;" style="text;strokeColor=none;fillColor=none;align=left;verticalAlign=top;spacingLeft=4;spacingRight=4;overflow=hidden;rotatable=0;points=[[0,0.5],[1,0.5]];portConstraint=eastwest;whiteSpace=wrap;html=1;" parent="GwFyRBO0t2Lqq0EGOhXc-5" vertex="1">
                    <mxGeometry y="40" width="190" height="80" as="geometry"/>
                </mxCell>
                <mxCell id="GwFyRBO0t2Lqq0EGOhXc-7" value="" style="line;strokeWidth=1;fillColor=none;align=left;verticalAlign=middle;spacingTop=-1;spacingLeft=3;spacingRight=3;rotatable=0;labelPosition=right;points=[];portConstraint=eastwest;strokeColor=inherit;" parent="GwFyRBO0t2Lqq0EGOhXc-5" vertex="1">
                    <mxGeometry y="120" width="190" height="8" as="geometry"/>
                </mxCell>
                <mxCell id="GwFyRBO0t2Lqq0EGOhXc-8" value="+ method(type): type" style="text;strokeColor=none;fillColor=none;align=left;verticalAlign=top;spacingLeft=4;spacingRight=4;overflow=hidden;rotatable=0;points=[[0,0.5],[1,0.5]];portConstraint=eastwest;whiteSpace=wrap;html=1;" parent="GwFyRBO0t2Lqq0EGOhXc-5" vertex="1">
                    <mxGeometry y="128" width="190" height="26" as="geometry"/>
                </mxCell>
                <mxCell id="GwFyRBO0t2Lqq0EGOhXc-9" value="&amp;lt;&amp;lt;Value object&amp;gt;&amp;gt;&lt;div&gt;TelecomSpecID&lt;/div&gt;" style="swimlane;fontStyle=1;align=center;verticalAlign=top;childLayout=stackLayout;horizontal=1;startSize=40;horizontalStack=0;resizeParent=1;resizeParentMax=0;resizeLast=0;collapsible=1;marginBottom=0;whiteSpace=wrap;html=1;" parent="1" vertex="1">
                    <mxGeometry x="-100" y="974" width="190" height="104" as="geometry"/>
                </mxCell>
                <mxCell id="GwFyRBO0t2Lqq0EGOhXc-10" value="- value: string&lt;div&gt;&lt;br&gt;&lt;/div&gt;" style="text;strokeColor=none;fillColor=none;align=left;verticalAlign=top;spacingLeft=4;spacingRight=4;overflow=hidden;rotatable=0;points=[[0,0.5],[1,0.5]];portConstraint=eastwest;whiteSpace=wrap;html=1;" parent="GwFyRBO0t2Lqq0EGOhXc-9" vertex="1">
                    <mxGeometry y="40" width="190" height="30" as="geometry"/>
                </mxCell>
                <mxCell id="GwFyRBO0t2Lqq0EGOhXc-11" value="" style="line;strokeWidth=1;fillColor=none;align=left;verticalAlign=middle;spacingTop=-1;spacingLeft=3;spacingRight=3;rotatable=0;labelPosition=right;points=[];portConstraint=eastwest;strokeColor=inherit;" parent="GwFyRBO0t2Lqq0EGOhXc-9" vertex="1">
                    <mxGeometry y="70" width="190" height="8" as="geometry"/>
                </mxCell>
                <mxCell id="GwFyRBO0t2Lqq0EGOhXc-12" value="+ method(type): type" style="text;strokeColor=none;fillColor=none;align=left;verticalAlign=top;spacingLeft=4;spacingRight=4;overflow=hidden;rotatable=0;points=[[0,0.5],[1,0.5]];portConstraint=eastwest;whiteSpace=wrap;html=1;" parent="GwFyRBO0t2Lqq0EGOhXc-9" vertex="1">
                    <mxGeometry y="78" width="190" height="26" as="geometry"/>
                </mxCell>
                <mxCell id="GwFyRBO0t2Lqq0EGOhXc-14" style="edgeStyle=orthogonalEdgeStyle;rounded=0;orthogonalLoop=1;jettySize=auto;html=1;entryX=1.005;entryY=0.183;entryDx=0;entryDy=0;entryPerimeter=0;startArrow=diamond;startFill=0;endArrow=ERone;endFill=0;exitX=0.009;exitY=0.192;exitDx=0;exitDy=0;exitPerimeter=0;" parent="1" source="IiC-hAanUXLyAjGfhQ_G-21" target="GwFyRBO0t2Lqq0EGOhXc-9" edge="1">
                    <mxGeometry relative="1" as="geometry">
                        <mxPoint x="120" y="1077" as="sourcePoint"/>
                        <Array as="points">
                            <mxPoint x="130" y="873"/>
                            <mxPoint x="130" y="874"/>
                            <mxPoint x="110" y="874"/>
                            <mxPoint x="110" y="993"/>
                        </Array>
                    </mxGeometry>
                </mxCell>
                <mxCell id="SmEggsBRFmKiBiRXJJUy-7" style="edgeStyle=orthogonalEdgeStyle;rounded=0;orthogonalLoop=1;jettySize=auto;html=1;entryX=1;entryY=0.183;entryDx=0;entryDy=0;entryPerimeter=0;startArrow=diamond;startFill=1;endArrow=ERone;endFill=0;exitX=0.75;exitY=0;exitDx=0;exitDy=0;" parent="1" source="cLbF2slpCYDmgKNz8u4w-5" target="IiC-hAanUXLyAjGfhQ_G-23" edge="1">
                    <mxGeometry relative="1" as="geometry">
                        <Array as="points">
                            <mxPoint x="273" y="440"/>
                            <mxPoint x="270" y="440"/>
                            <mxPoint x="270" y="400"/>
                            <mxPoint x="120" y="400"/>
                            <mxPoint x="120" y="239"/>
                        </Array>
                        <mxPoint x="349" y="450.924" as="sourcePoint"/>
                    </mxGeometry>
                </mxCell>
                <mxCell id="SmEggsBRFmKiBiRXJJUy-11" value="&amp;lt;&amp;lt;Aggregate&amp;gt;&amp;gt;&lt;div&gt;Country&lt;/div&gt;" style="swimlane;fontStyle=1;align=center;verticalAlign=top;childLayout=stackLayout;horizontal=1;startSize=40;horizontalStack=0;resizeParent=1;resizeParentMax=0;resizeLast=0;collapsible=1;marginBottom=0;whiteSpace=wrap;html=1;" parent="1" vertex="1">
                    <mxGeometry x="130" y="1103" width="230" height="114" as="geometry">
                        <mxRectangle x="30" y="611" width="190" height="40" as="alternateBounds"/>
                    </mxGeometry>
                </mxCell>
                <mxCell id="SmEggsBRFmKiBiRXJJUy-12" value="- countryID:value object&lt;div&gt;- value:string&lt;/div&gt;" style="text;strokeColor=none;fillColor=none;align=left;verticalAlign=top;spacingLeft=4;spacingRight=4;overflow=hidden;rotatable=0;points=[[0,0.5],[1,0.5]];portConstraint=eastwest;whiteSpace=wrap;html=1;" parent="SmEggsBRFmKiBiRXJJUy-11" vertex="1">
                    <mxGeometry y="40" width="230" height="40" as="geometry"/>
                </mxCell>
                <mxCell id="SmEggsBRFmKiBiRXJJUy-13" value="" style="line;strokeWidth=1;fillColor=none;align=left;verticalAlign=middle;spacingTop=-1;spacingLeft=3;spacingRight=3;rotatable=0;labelPosition=right;points=[];portConstraint=eastwest;strokeColor=inherit;" parent="SmEggsBRFmKiBiRXJJUy-11" vertex="1">
                    <mxGeometry y="80" width="230" height="8" as="geometry"/>
                </mxCell>
                <mxCell id="SmEggsBRFmKiBiRXJJUy-14" value="+ method(type): type" style="text;strokeColor=none;fillColor=none;align=left;verticalAlign=top;spacingLeft=4;spacingRight=4;overflow=hidden;rotatable=0;points=[[0,0.5],[1,0.5]];portConstraint=eastwest;whiteSpace=wrap;html=1;" parent="SmEggsBRFmKiBiRXJJUy-11" vertex="1">
                    <mxGeometry y="88" width="230" height="26" as="geometry"/>
                </mxCell>
                <mxCell id="SmEggsBRFmKiBiRXJJUy-15" value="&amp;lt;&amp;lt;Aggregatet&amp;gt;&amp;gt;&lt;div&gt;State&lt;/div&gt;" style="swimlane;fontStyle=1;align=center;verticalAlign=top;childLayout=stackLayout;horizontal=1;startSize=40;horizontalStack=0;resizeParent=1;resizeParentMax=0;resizeLast=0;collapsible=1;marginBottom=0;whiteSpace=wrap;html=1;" parent="1" vertex="1">
                    <mxGeometry x="470" y="1103" width="230" height="114" as="geometry">
                        <mxRectangle x="30" y="611" width="190" height="40" as="alternateBounds"/>
                    </mxGeometry>
                </mxCell>
                <mxCell id="SmEggsBRFmKiBiRXJJUy-16" value="- stateID:value object&lt;div&gt;- value:string&lt;/div&gt;" style="text;strokeColor=none;fillColor=none;align=left;verticalAlign=top;spacingLeft=4;spacingRight=4;overflow=hidden;rotatable=0;points=[[0,0.5],[1,0.5]];portConstraint=eastwest;whiteSpace=wrap;html=1;" parent="SmEggsBRFmKiBiRXJJUy-15" vertex="1">
                    <mxGeometry y="40" width="230" height="40" as="geometry"/>
                </mxCell>
                <mxCell id="SmEggsBRFmKiBiRXJJUy-17" value="" style="line;strokeWidth=1;fillColor=none;align=left;verticalAlign=middle;spacingTop=-1;spacingLeft=3;spacingRight=3;rotatable=0;labelPosition=right;points=[];portConstraint=eastwest;strokeColor=inherit;" parent="SmEggsBRFmKiBiRXJJUy-15" vertex="1">
                    <mxGeometry y="80" width="230" height="8" as="geometry"/>
                </mxCell>
                <mxCell id="SmEggsBRFmKiBiRXJJUy-18" value="+ method(type): type" style="text;strokeColor=none;fillColor=none;align=left;verticalAlign=top;spacingLeft=4;spacingRight=4;overflow=hidden;rotatable=0;points=[[0,0.5],[1,0.5]];portConstraint=eastwest;whiteSpace=wrap;html=1;" parent="SmEggsBRFmKiBiRXJJUy-15" vertex="1">
                    <mxGeometry y="88" width="230" height="26" as="geometry"/>
                </mxCell>
                <mxCell id="SmEggsBRFmKiBiRXJJUy-19" value="&amp;lt;&amp;lt;Value object&amp;gt;&amp;gt;&lt;div&gt;countryID&lt;/div&gt;" style="swimlane;fontStyle=1;align=center;verticalAlign=top;childLayout=stackLayout;horizontal=1;startSize=40;horizontalStack=0;resizeParent=1;resizeParentMax=0;resizeLast=0;collapsible=1;marginBottom=0;whiteSpace=wrap;html=1;" parent="1" vertex="1">
                    <mxGeometry x="140" y="940" width="190" height="104" as="geometry"/>
                </mxCell>
                <mxCell id="SmEggsBRFmKiBiRXJJUy-20" value="- value: string&lt;div&gt;&lt;br&gt;&lt;/div&gt;" style="text;strokeColor=none;fillColor=none;align=left;verticalAlign=top;spacingLeft=4;spacingRight=4;overflow=hidden;rotatable=0;points=[[0,0.5],[1,0.5]];portConstraint=eastwest;whiteSpace=wrap;html=1;" parent="SmEggsBRFmKiBiRXJJUy-19" vertex="1">
                    <mxGeometry y="40" width="190" height="30" as="geometry"/>
                </mxCell>
                <mxCell id="SmEggsBRFmKiBiRXJJUy-21" value="" style="line;strokeWidth=1;fillColor=none;align=left;verticalAlign=middle;spacingTop=-1;spacingLeft=3;spacingRight=3;rotatable=0;labelPosition=right;points=[];portConstraint=eastwest;strokeColor=inherit;" parent="SmEggsBRFmKiBiRXJJUy-19" vertex="1">
                    <mxGeometry y="70" width="190" height="8" as="geometry"/>
                </mxCell>
                <mxCell id="SmEggsBRFmKiBiRXJJUy-22" value="+ method(type): type" style="text;strokeColor=none;fillColor=none;align=left;verticalAlign=top;spacingLeft=4;spacingRight=4;overflow=hidden;rotatable=0;points=[[0,0.5],[1,0.5]];portConstraint=eastwest;whiteSpace=wrap;html=1;" parent="SmEggsBRFmKiBiRXJJUy-19" vertex="1">
                    <mxGeometry y="78" width="190" height="26" as="geometry"/>
                </mxCell>
                <mxCell id="SmEggsBRFmKiBiRXJJUy-23" value="&amp;lt;&amp;lt;Value object&amp;gt;&amp;gt;&lt;div&gt;StateID&lt;/div&gt;" style="swimlane;fontStyle=1;align=center;verticalAlign=top;childLayout=stackLayout;horizontal=1;startSize=40;horizontalStack=0;resizeParent=1;resizeParentMax=0;resizeLast=0;collapsible=1;marginBottom=0;whiteSpace=wrap;html=1;" parent="1" vertex="1">
                    <mxGeometry x="400" y="949" width="190" height="104" as="geometry"/>
                </mxCell>
                <mxCell id="SmEggsBRFmKiBiRXJJUy-24" value="- value: string&lt;div&gt;&lt;br&gt;&lt;/div&gt;" style="text;strokeColor=none;fillColor=none;align=left;verticalAlign=top;spacingLeft=4;spacingRight=4;overflow=hidden;rotatable=0;points=[[0,0.5],[1,0.5]];portConstraint=eastwest;whiteSpace=wrap;html=1;" parent="SmEggsBRFmKiBiRXJJUy-23" vertex="1">
                    <mxGeometry y="40" width="190" height="30" as="geometry"/>
                </mxCell>
                <mxCell id="SmEggsBRFmKiBiRXJJUy-25" value="" style="line;strokeWidth=1;fillColor=none;align=left;verticalAlign=middle;spacingTop=-1;spacingLeft=3;spacingRight=3;rotatable=0;labelPosition=right;points=[];portConstraint=eastwest;strokeColor=inherit;" parent="SmEggsBRFmKiBiRXJJUy-23" vertex="1">
                    <mxGeometry y="70" width="190" height="8" as="geometry"/>
                </mxCell>
                <mxCell id="SmEggsBRFmKiBiRXJJUy-26" value="+ method(type): type" style="text;strokeColor=none;fillColor=none;align=left;verticalAlign=top;spacingLeft=4;spacingRight=4;overflow=hidden;rotatable=0;points=[[0,0.5],[1,0.5]];portConstraint=eastwest;whiteSpace=wrap;html=1;" parent="SmEggsBRFmKiBiRXJJUy-23" vertex="1">
                    <mxGeometry y="78" width="190" height="26" as="geometry"/>
                </mxCell>
                <mxCell id="SmEggsBRFmKiBiRXJJUy-28" style="edgeStyle=orthogonalEdgeStyle;rounded=0;orthogonalLoop=1;jettySize=auto;html=1;entryX=0.468;entryY=1.038;entryDx=0;entryDy=0;entryPerimeter=0;startArrow=diamond;startFill=1;endArrow=ERone;endFill=0;" parent="1" source="SmEggsBRFmKiBiRXJJUy-11" target="SmEggsBRFmKiBiRXJJUy-22" edge="1">
                    <mxGeometry relative="1" as="geometry"/>
                </mxCell>
                <mxCell id="SmEggsBRFmKiBiRXJJUy-29" style="edgeStyle=orthogonalEdgeStyle;rounded=0;orthogonalLoop=1;jettySize=auto;html=1;entryX=0.539;entryY=1.154;entryDx=0;entryDy=0;entryPerimeter=0;startArrow=diamond;startFill=1;endArrow=ERone;endFill=0;" parent="1" source="SmEggsBRFmKiBiRXJJUy-15" target="SmEggsBRFmKiBiRXJJUy-26" edge="1">
                    <mxGeometry relative="1" as="geometry">
                        <Array as="points">
                            <mxPoint x="585" y="1078"/>
                            <mxPoint x="502" y="1078"/>
                        </Array>
                    </mxGeometry>
                </mxCell>
                <mxCell id="SmEggsBRFmKiBiRXJJUy-31" style="edgeStyle=orthogonalEdgeStyle;rounded=0;orthogonalLoop=1;jettySize=auto;html=1;entryX=0;entryY=0.25;entryDx=0;entryDy=0;startArrow=diamond;startFill=0;endArrow=ERone;endFill=0;" parent="1" source="LZRiOb_BstFV7OTACxnQ-8" target="SmEggsBRFmKiBiRXJJUy-23" edge="1">
                    <mxGeometry relative="1" as="geometry">
                        <Array as="points">
                            <mxPoint x="70" y="819"/>
                            <mxPoint x="70" y="920"/>
                            <mxPoint x="370" y="920"/>
                            <mxPoint x="370" y="975"/>
                        </Array>
                    </mxGeometry>
                </mxCell>
                <mxCell id="SmEggsBRFmKiBiRXJJUy-32" style="edgeStyle=orthogonalEdgeStyle;rounded=0;orthogonalLoop=1;jettySize=auto;html=1;entryX=0.188;entryY=1.141;entryDx=0;entryDy=0;entryPerimeter=0;exitX=1;exitY=0.5;exitDx=0;exitDy=0;startArrow=diamond;startFill=0;endArrow=ERone;endFill=0;" parent="1" source="GwFyRBO0t2Lqq0EGOhXc-8" target="SmEggsBRFmKiBiRXJJUy-22" edge="1">
                    <mxGeometry relative="1" as="geometry">
                        <Array as="points">
                            <mxPoint x="176" y="1090"/>
                        </Array>
                    </mxGeometry>
                </mxCell>
                <mxCell id="SmEggsBRFmKiBiRXJJUy-33" value="&amp;lt;&amp;lt;Aggregate&amp;gt;&amp;gt;&lt;div&gt;Access Rule&lt;/div&gt;" style="swimlane;fontStyle=1;align=center;verticalAlign=top;childLayout=stackLayout;horizontal=1;startSize=40;horizontalStack=0;resizeParent=1;resizeParentMax=0;resizeLast=0;collapsible=1;marginBottom=0;whiteSpace=wrap;html=1;" parent="1" vertex="1">
                    <mxGeometry x="840" y="1090" width="220" height="114" as="geometry"/>
                </mxCell>
                <mxCell id="SmEggsBRFmKiBiRXJJUy-34" value="- accessRuleId:value object&lt;br&gt;&lt;span style=&quot;background-color: initial;&quot;&gt;- authenticationMethod:string&lt;/span&gt;" style="text;strokeColor=none;fillColor=none;align=left;verticalAlign=top;spacingLeft=4;spacingRight=4;overflow=hidden;rotatable=0;points=[[0,0.5],[1,0.5]];portConstraint=eastwest;whiteSpace=wrap;html=1;" parent="SmEggsBRFmKiBiRXJJUy-33" vertex="1">
                    <mxGeometry y="40" width="220" height="40" as="geometry"/>
                </mxCell>
                <mxCell id="SmEggsBRFmKiBiRXJJUy-35" value="" style="line;strokeWidth=1;fillColor=none;align=left;verticalAlign=middle;spacingTop=-1;spacingLeft=3;spacingRight=3;rotatable=0;labelPosition=right;points=[];portConstraint=eastwest;strokeColor=inherit;" parent="SmEggsBRFmKiBiRXJJUy-33" vertex="1">
                    <mxGeometry y="80" width="220" height="8" as="geometry"/>
                </mxCell>
                <mxCell id="SmEggsBRFmKiBiRXJJUy-36" value="+ method(type): type" style="text;strokeColor=none;fillColor=none;align=left;verticalAlign=top;spacingLeft=4;spacingRight=4;overflow=hidden;rotatable=0;points=[[0,0.5],[1,0.5]];portConstraint=eastwest;whiteSpace=wrap;html=1;" parent="SmEggsBRFmKiBiRXJJUy-33" vertex="1">
                    <mxGeometry y="88" width="220" height="26" as="geometry"/>
                </mxCell>
                <mxCell id="MtaMSzCn0xIcsxd4Q0sG-1" value="&amp;lt;&amp;lt;Value object&amp;gt;&amp;gt;&lt;div&gt;WorkProfileId&lt;/div&gt;" style="swimlane;fontStyle=1;align=center;verticalAlign=top;childLayout=stackLayout;horizontal=1;startSize=40;horizontalStack=0;resizeParent=1;resizeParentMax=0;resizeLast=0;collapsible=1;marginBottom=0;whiteSpace=wrap;html=1;" parent="1" vertex="1">
                    <mxGeometry x="330" y="640" width="180" height="104" as="geometry"/>
                </mxCell>
                <mxCell id="MtaMSzCn0xIcsxd4Q0sG-2" value="- id:string&lt;div&gt;&lt;br&gt;&lt;/div&gt;" style="text;strokeColor=none;fillColor=none;align=left;verticalAlign=top;spacingLeft=4;spacingRight=4;overflow=hidden;rotatable=0;points=[[0,0.5],[1,0.5]];portConstraint=eastwest;whiteSpace=wrap;html=1;" parent="MtaMSzCn0xIcsxd4Q0sG-1" vertex="1">
                    <mxGeometry y="40" width="180" height="30" as="geometry"/>
                </mxCell>
                <mxCell id="MtaMSzCn0xIcsxd4Q0sG-3" value="" style="line;strokeWidth=1;fillColor=none;align=left;verticalAlign=middle;spacingTop=-1;spacingLeft=3;spacingRight=3;rotatable=0;labelPosition=right;points=[];portConstraint=eastwest;strokeColor=inherit;" parent="MtaMSzCn0xIcsxd4Q0sG-1" vertex="1">
                    <mxGeometry y="70" width="180" height="8" as="geometry"/>
                </mxCell>
                <mxCell id="MtaMSzCn0xIcsxd4Q0sG-4" value="+ method(type): type" style="text;strokeColor=none;fillColor=none;align=left;verticalAlign=top;spacingLeft=4;spacingRight=4;overflow=hidden;rotatable=0;points=[[0,0.5],[1,0.5]];portConstraint=eastwest;whiteSpace=wrap;html=1;" parent="MtaMSzCn0xIcsxd4Q0sG-1" vertex="1">
                    <mxGeometry y="78" width="180" height="26" as="geometry"/>
                </mxCell>
                <mxCell id="i32AvS-1LId-x-ZZocGy-1" value="&amp;lt;&amp;lt;Value object&amp;gt;&amp;gt;&lt;div&gt;AccessRuleId&lt;/div&gt;" style="swimlane;fontStyle=1;align=center;verticalAlign=top;childLayout=stackLayout;horizontal=1;startSize=40;horizontalStack=0;resizeParent=1;resizeParentMax=0;resizeLast=0;collapsible=1;marginBottom=0;whiteSpace=wrap;html=1;" parent="1" vertex="1">
                    <mxGeometry x="860" y="910" width="190" height="104" as="geometry"/>
                </mxCell>
                <mxCell id="i32AvS-1LId-x-ZZocGy-2" value="- id:string&lt;div&gt;&lt;br&gt;&lt;/div&gt;" style="text;strokeColor=none;fillColor=none;align=left;verticalAlign=top;spacingLeft=4;spacingRight=4;overflow=hidden;rotatable=0;points=[[0,0.5],[1,0.5]];portConstraint=eastwest;whiteSpace=wrap;html=1;" parent="i32AvS-1LId-x-ZZocGy-1" vertex="1">
                    <mxGeometry y="40" width="190" height="30" as="geometry"/>
                </mxCell>
                <mxCell id="i32AvS-1LId-x-ZZocGy-3" value="" style="line;strokeWidth=1;fillColor=none;align=left;verticalAlign=middle;spacingTop=-1;spacingLeft=3;spacingRight=3;rotatable=0;labelPosition=right;points=[];portConstraint=eastwest;strokeColor=inherit;" parent="i32AvS-1LId-x-ZZocGy-1" vertex="1">
                    <mxGeometry y="70" width="190" height="8" as="geometry"/>
                </mxCell>
                <mxCell id="i32AvS-1LId-x-ZZocGy-4" value="+ method(type): type" style="text;strokeColor=none;fillColor=none;align=left;verticalAlign=top;spacingLeft=4;spacingRight=4;overflow=hidden;rotatable=0;points=[[0,0.5],[1,0.5]];portConstraint=eastwest;whiteSpace=wrap;html=1;" parent="i32AvS-1LId-x-ZZocGy-1" vertex="1">
                    <mxGeometry y="78" width="190" height="26" as="geometry"/>
                </mxCell>
                <mxCell id="i32AvS-1LId-x-ZZocGy-5" style="edgeStyle=orthogonalEdgeStyle;rounded=0;orthogonalLoop=1;jettySize=auto;html=1;entryX=0.597;entryY=1.02;entryDx=0;entryDy=0;entryPerimeter=0;startArrow=diamond;startFill=1;endArrow=ERone;endFill=0;" parent="1" source="SmEggsBRFmKiBiRXJJUy-33" target="i32AvS-1LId-x-ZZocGy-4" edge="1">
                    <mxGeometry relative="1" as="geometry"/>
                </mxCell>
                <mxCell id="i32AvS-1LId-x-ZZocGy-6" style="edgeStyle=orthogonalEdgeStyle;rounded=0;orthogonalLoop=1;jettySize=auto;html=1;entryX=0;entryY=0.5;entryDx=0;entryDy=0;exitX=1.004;exitY=0.617;exitDx=0;exitDy=0;exitPerimeter=0;startArrow=diamond;startFill=0;endArrow=ERmany;endFill=0;" parent="1" source="cLbF2slpCYDmgKNz8u4w-17" target="i32AvS-1LId-x-ZZocGy-2" edge="1">
                    <mxGeometry relative="1" as="geometry"/>
                </mxCell>
                <mxCell id="i32AvS-1LId-x-ZZocGy-7" style="edgeStyle=orthogonalEdgeStyle;rounded=0;orthogonalLoop=1;jettySize=auto;html=1;entryX=0;entryY=0.5;entryDx=0;entryDy=0;exitX=1.01;exitY=0.967;exitDx=0;exitDy=0;exitPerimeter=0;startArrow=diamond;startFill=1;endArrow=ERmany;endFill=0;" parent="1" source="cLbF2slpCYDmgKNz8u4w-43" target="i32AvS-1LId-x-ZZocGy-4" edge="1">
                    <mxGeometry relative="1" as="geometry"/>
                </mxCell>
                <mxCell id="10" style="edgeStyle=elbowEdgeStyle;html=1;entryX=0;entryY=0.3;entryDx=0;entryDy=0;entryPerimeter=0;exitX=1.011;exitY=0.357;exitDx=0;exitDy=0;exitPerimeter=0;startArrow=diamond;startFill=1;endArrow=ERone;endFill=0;" parent="1" source="3" target="7" edge="1">
                    <mxGeometry relative="1" as="geometry"/>
                </mxCell>
                <mxCell id="11" style="edgeStyle=orthogonalEdgeStyle;html=1;entryX=0;entryY=0.25;entryDx=0;entryDy=0;startArrow=diamond;startFill=0;endArrow=ERone;endFill=0;exitX=1.005;exitY=0.814;exitDx=0;exitDy=0;exitPerimeter=0;" parent="1" source="3" target="cLbF2slpCYDmgKNz8u4w-20" edge="1">
                    <mxGeometry relative="1" as="geometry"/>
                </mxCell>
                <mxCell id="16" style="edgeStyle=elbowEdgeStyle;html=1;entryX=1.009;entryY=0.133;entryDx=0;entryDy=0;entryPerimeter=0;startArrow=diamond;startFill=1;endArrow=ERone;endFill=0;exitX=0.005;exitY=0.214;exitDx=0;exitDy=0;exitPerimeter=0;" parent="1" source="3" target="13" edge="1">
                    <mxGeometry relative="1" as="geometry"/>
                </mxCell>
                <mxCell id="21" style="edgeStyle=elbowEdgeStyle;elbow=vertical;html=1;entryX=0.5;entryY=0;entryDx=0;entryDy=0;startArrow=diamond;startFill=1;endArrow=ERone;endFill=0;" parent="1" source="2" target="17" edge="1">
                    <mxGeometry relative="1" as="geometry">
                        <Array as="points">
                            <mxPoint x="-40" y="150"/>
                        </Array>
                    </mxGeometry>
                </mxCell>
                <mxCell id="2" value="&amp;lt;&amp;lt;Aggregate&amp;gt;&amp;gt;&lt;div&gt;UserAccountProfile&lt;/div&gt;" style="swimlane;fontStyle=1;align=center;verticalAlign=top;childLayout=stackLayout;horizontal=1;startSize=40;horizontalStack=0;resizeParent=1;resizeParentMax=0;resizeLast=0;collapsible=1;marginBottom=0;whiteSpace=wrap;html=1;" parent="1" vertex="1">
                    <mxGeometry x="190" y="-10" width="190" height="144" as="geometry"/>
                </mxCell>
                <mxCell id="3" value="&lt;div&gt;&lt;span style=&quot;background-color: initial;&quot;&gt;- userAccountProfileId:string&lt;/span&gt;&lt;/div&gt;&lt;div&gt;&lt;span style=&quot;background-color: initial;&quot;&gt;- userAccountId:value object&lt;/span&gt;&lt;/div&gt;&lt;div&gt;&lt;span style=&quot;background-color: initial;&quot;&gt;- email address:value object&lt;/span&gt;&lt;br&gt;&lt;/div&gt;&lt;div&gt;&lt;div&gt;&lt;span style=&quot;background-color: initial;&quot;&gt;- phoneNumber:value object&lt;/span&gt;&lt;/div&gt;&lt;/div&gt;&lt;div&gt;&lt;br&gt;&lt;/div&gt;" style="text;strokeColor=none;fillColor=none;align=left;verticalAlign=top;spacingLeft=4;spacingRight=4;overflow=hidden;rotatable=0;points=[[0,0.5],[1,0.5]];portConstraint=eastwest;whiteSpace=wrap;html=1;" parent="2" vertex="1">
                    <mxGeometry y="40" width="190" height="70" as="geometry"/>
                </mxCell>
                <mxCell id="4" value="" style="line;strokeWidth=1;fillColor=none;align=left;verticalAlign=middle;spacingTop=-1;spacingLeft=3;spacingRight=3;rotatable=0;labelPosition=right;points=[];portConstraint=eastwest;strokeColor=inherit;" parent="2" vertex="1">
                    <mxGeometry y="110" width="190" height="8" as="geometry"/>
                </mxCell>
                <mxCell id="5" value="+ method(type): type" style="text;strokeColor=none;fillColor=none;align=left;verticalAlign=top;spacingLeft=4;spacingRight=4;overflow=hidden;rotatable=0;points=[[0,0.5],[1,0.5]];portConstraint=eastwest;whiteSpace=wrap;html=1;" parent="2" vertex="1">
                    <mxGeometry y="118" width="190" height="26" as="geometry"/>
                </mxCell>
                <mxCell id="6" value="&amp;lt;&amp;lt;Value object&amp;gt;&amp;gt;&lt;div&gt;UserAccountProfileId&lt;/div&gt;" style="swimlane;fontStyle=1;align=center;verticalAlign=top;childLayout=stackLayout;horizontal=1;startSize=40;horizontalStack=0;resizeParent=1;resizeParentMax=0;resizeLast=0;collapsible=1;marginBottom=0;whiteSpace=wrap;html=1;" parent="1" vertex="1">
                    <mxGeometry x="520" y="24" width="180" height="104" as="geometry"/>
                </mxCell>
                <mxCell id="7" value="- Id:string&lt;div&gt;&lt;br&gt;&lt;/div&gt;" style="text;strokeColor=none;fillColor=none;align=left;verticalAlign=top;spacingLeft=4;spacingRight=4;overflow=hidden;rotatable=0;points=[[0,0.5],[1,0.5]];portConstraint=eastwest;whiteSpace=wrap;html=1;" parent="6" vertex="1">
                    <mxGeometry y="40" width="180" height="30" as="geometry"/>
                </mxCell>
                <mxCell id="8" value="" style="line;strokeWidth=1;fillColor=none;align=left;verticalAlign=middle;spacingTop=-1;spacingLeft=3;spacingRight=3;rotatable=0;labelPosition=right;points=[];portConstraint=eastwest;strokeColor=inherit;" parent="6" vertex="1">
                    <mxGeometry y="70" width="180" height="8" as="geometry"/>
                </mxCell>
                <mxCell id="9" value="+ method(type): type" style="text;strokeColor=none;fillColor=none;align=left;verticalAlign=top;spacingLeft=4;spacingRight=4;overflow=hidden;rotatable=0;points=[[0,0.5],[1,0.5]];portConstraint=eastwest;whiteSpace=wrap;html=1;" parent="6" vertex="1">
                    <mxGeometry y="78" width="180" height="26" as="geometry"/>
                </mxCell>
                <mxCell id="12" value="&amp;lt;&amp;lt;Value Object&amp;gt;&amp;gt;&lt;div&gt;EmailAddress&lt;/div&gt;" style="swimlane;fontStyle=1;align=center;verticalAlign=top;childLayout=stackLayout;horizontal=1;startSize=40;horizontalStack=0;resizeParent=1;resizeParentMax=0;resizeLast=0;collapsible=1;marginBottom=0;whiteSpace=wrap;html=1;" parent="1" vertex="1">
                    <mxGeometry x="-200" y="-20" width="230" height="134" as="geometry">
                        <mxRectangle x="30" y="611" width="190" height="40" as="alternateBounds"/>
                    </mxGeometry>
                </mxCell>
                <mxCell id="13" value="- value:string&lt;div&gt;- status:string&lt;/div&gt;&lt;div&gt;- verificationCode:value object&lt;/div&gt;" style="text;strokeColor=none;fillColor=none;align=left;verticalAlign=top;spacingLeft=4;spacingRight=4;overflow=hidden;rotatable=0;points=[[0,0.5],[1,0.5]];portConstraint=eastwest;whiteSpace=wrap;html=1;" parent="12" vertex="1">
                    <mxGeometry y="40" width="230" height="60" as="geometry"/>
                </mxCell>
                <mxCell id="14" value="" style="line;strokeWidth=1;fillColor=none;align=left;verticalAlign=middle;spacingTop=-1;spacingLeft=3;spacingRight=3;rotatable=0;labelPosition=right;points=[];portConstraint=eastwest;strokeColor=inherit;" parent="12" vertex="1">
                    <mxGeometry y="100" width="230" height="8" as="geometry"/>
                </mxCell>
                <mxCell id="15" value="+ method(type): type" style="text;strokeColor=none;fillColor=none;align=left;verticalAlign=top;spacingLeft=4;spacingRight=4;overflow=hidden;rotatable=0;points=[[0,0.5],[1,0.5]];portConstraint=eastwest;whiteSpace=wrap;html=1;" parent="12" vertex="1">
                    <mxGeometry y="108" width="230" height="26" as="geometry"/>
                </mxCell>
                <mxCell id="22" style="edgeStyle=elbowEdgeStyle;elbow=vertical;html=1;entryX=0.25;entryY=0;entryDx=0;entryDy=0;startArrow=diamond;startFill=0;endArrow=ERone;endFill=0;" parent="1" source="17" target="IiC-hAanUXLyAjGfhQ_G-27" edge="1">
                    <mxGeometry relative="1" as="geometry"/>
                </mxCell>
                <mxCell id="17" value="&amp;lt;&amp;lt;Value Object&amp;gt;&amp;gt;&lt;div&gt;PhoneNumber&lt;/div&gt;" style="swimlane;fontStyle=1;align=center;verticalAlign=top;childLayout=stackLayout;horizontal=1;startSize=40;horizontalStack=0;resizeParent=1;resizeParentMax=0;resizeLast=0;collapsible=1;marginBottom=0;whiteSpace=wrap;html=1;" parent="1" vertex="1">
                    <mxGeometry x="-480" y="178" width="230" height="144" as="geometry">
                        <mxRectangle x="30" y="611" width="190" height="40" as="alternateBounds"/>
                    </mxGeometry>
                </mxCell>
                <mxCell id="18" value="- telecomSpecID:value object&lt;div&gt;- value:string&lt;/div&gt;&lt;div&gt;- status:string&lt;/div&gt;&lt;div&gt;- verificationCode:value object&lt;/div&gt;" style="text;strokeColor=none;fillColor=none;align=left;verticalAlign=top;spacingLeft=4;spacingRight=4;overflow=hidden;rotatable=0;points=[[0,0.5],[1,0.5]];portConstraint=eastwest;whiteSpace=wrap;html=1;" parent="17" vertex="1">
                    <mxGeometry y="40" width="230" height="70" as="geometry"/>
                </mxCell>
                <mxCell id="19" value="" style="line;strokeWidth=1;fillColor=none;align=left;verticalAlign=middle;spacingTop=-1;spacingLeft=3;spacingRight=3;rotatable=0;labelPosition=right;points=[];portConstraint=eastwest;strokeColor=inherit;" parent="17" vertex="1">
                    <mxGeometry y="110" width="230" height="8" as="geometry"/>
                </mxCell>
                <mxCell id="20" value="+ method(type): type" style="text;strokeColor=none;fillColor=none;align=left;verticalAlign=top;spacingLeft=4;spacingRight=4;overflow=hidden;rotatable=0;points=[[0,0.5],[1,0.5]];portConstraint=eastwest;whiteSpace=wrap;html=1;" parent="17" vertex="1">
                    <mxGeometry y="118" width="230" height="26" as="geometry"/>
                </mxCell>
                <mxCell id="24" style="edgeStyle=orthogonalEdgeStyle;elbow=vertical;html=1;entryX=0.417;entryY=0;entryDx=0;entryDy=0;entryPerimeter=0;startArrow=diamond;startFill=1;endArrow=ERone;endFill=0;" parent="1" source="cLbF2slpCYDmgKNz8u4w-6" target="MtaMSzCn0xIcsxd4Q0sG-1" edge="1">
                    <mxGeometry relative="1" as="geometry">
                        <Array as="points">
                            <mxPoint x="435" y="580"/>
                        </Array>
                    </mxGeometry>
                </mxCell>
                <mxCell id="26" style="edgeStyle=orthogonalEdgeStyle;html=1;entryX=0.16;entryY=-0.009;entryDx=0;entryDy=0;entryPerimeter=0;exitX=0.994;exitY=-0.13;exitDx=0;exitDy=0;exitPerimeter=0;startArrow=diamond;startFill=0;endArrow=ERoneToMany;endFill=0;" parent="1" source="cLbF2slpCYDmgKNz8u4w-4" target="i32AvS-1LId-x-ZZocGy-1" edge="1">
                    <mxGeometry relative="1" as="geometry">
                        <mxPoint x="550" y="640" as="targetPoint"/>
                        <Array as="points">
                            <mxPoint x="410" y="284"/>
                            <mxPoint x="410" y="290"/>
                            <mxPoint x="530" y="290"/>
                            <mxPoint x="530" y="740"/>
                            <mxPoint x="890" y="740"/>
                        </Array>
                    </mxGeometry>
                </mxCell>
                <mxCell id="35" style="edgeStyle=orthogonalEdgeStyle;html=1;entryX=0.68;entryY=0.002;entryDx=0;entryDy=0;entryPerimeter=0;startArrow=diamond;startFill=1;endArrow=ERone;endFill=0;" parent="1" source="27" target="31" edge="1">
                    <mxGeometry relative="1" as="geometry"/>
                </mxCell>
                <mxCell id="27" value="&amp;lt;&amp;lt;Aggregate&amp;gt;&amp;gt;&lt;div&gt;Restriction&lt;/div&gt;" style="swimlane;fontStyle=1;align=center;verticalAlign=top;childLayout=stackLayout;horizontal=1;startSize=40;horizontalStack=0;resizeParent=1;resizeParentMax=0;resizeLast=0;collapsible=1;marginBottom=0;whiteSpace=wrap;html=1;" parent="1" vertex="1">
                    <mxGeometry x="360" y="-190" width="190" height="114" as="geometry"/>
                </mxCell>
                <mxCell id="28" value="&lt;div&gt;- restrictionId:value object&lt;/div&gt;&lt;div&gt;- reason: string&lt;/div&gt;" style="text;strokeColor=none;fillColor=none;align=left;verticalAlign=top;spacingLeft=4;spacingRight=4;overflow=hidden;rotatable=0;points=[[0,0.5],[1,0.5]];portConstraint=eastwest;whiteSpace=wrap;html=1;" parent="27" vertex="1">
                    <mxGeometry y="40" width="190" height="40" as="geometry"/>
                </mxCell>
                <mxCell id="29" value="" style="line;strokeWidth=1;fillColor=none;align=left;verticalAlign=middle;spacingTop=-1;spacingLeft=3;spacingRight=3;rotatable=0;labelPosition=right;points=[];portConstraint=eastwest;strokeColor=inherit;" parent="27" vertex="1">
                    <mxGeometry y="80" width="190" height="8" as="geometry"/>
                </mxCell>
                <mxCell id="30" value="+ method(type): type" style="text;strokeColor=none;fillColor=none;align=left;verticalAlign=top;spacingLeft=4;spacingRight=4;overflow=hidden;rotatable=0;points=[[0,0.5],[1,0.5]];portConstraint=eastwest;whiteSpace=wrap;html=1;" parent="27" vertex="1">
                    <mxGeometry y="88" width="190" height="26" as="geometry"/>
                </mxCell>
                <mxCell id="31" value="&amp;lt;&amp;lt;Value object&amp;gt;&amp;gt;&lt;div&gt;RestrictionId&lt;/div&gt;" style="swimlane;fontStyle=1;align=center;verticalAlign=top;childLayout=stackLayout;horizontal=1;startSize=40;horizontalStack=0;resizeParent=1;resizeParentMax=0;resizeLast=0;collapsible=1;marginBottom=0;whiteSpace=wrap;html=1;" parent="1" vertex="1">
                    <mxGeometry x="300" y="352" width="180" height="104" as="geometry"/>
                </mxCell>
                <mxCell id="32" value="- value:string&lt;div&gt;&lt;br&gt;&lt;/div&gt;" style="text;strokeColor=none;fillColor=none;align=left;verticalAlign=top;spacingLeft=4;spacingRight=4;overflow=hidden;rotatable=0;points=[[0,0.5],[1,0.5]];portConstraint=eastwest;whiteSpace=wrap;html=1;" parent="31" vertex="1">
                    <mxGeometry y="40" width="180" height="30" as="geometry"/>
                </mxCell>
                <mxCell id="33" value="" style="line;strokeWidth=1;fillColor=none;align=left;verticalAlign=middle;spacingTop=-1;spacingLeft=3;spacingRight=3;rotatable=0;labelPosition=right;points=[];portConstraint=eastwest;strokeColor=inherit;" parent="31" vertex="1">
                    <mxGeometry y="70" width="180" height="8" as="geometry"/>
                </mxCell>
                <mxCell id="34" value="+ method(type): type" style="text;strokeColor=none;fillColor=none;align=left;verticalAlign=top;spacingLeft=4;spacingRight=4;overflow=hidden;rotatable=0;points=[[0,0.5],[1,0.5]];portConstraint=eastwest;whiteSpace=wrap;html=1;" parent="31" vertex="1">
                    <mxGeometry y="78" width="180" height="26" as="geometry"/>
                </mxCell>
            </root>
        </mxGraphModel>
    </diagram>
</mxfile>